<svg width="1920" height="322" viewBox="0 0 1920 322" fill="none" xmlns="http://www.w3.org/2000/svg">
<rect y="1.5" width="1920" height="318" fill="#F8B195"/>
<path d="M228.5 0H522L663 321.5H364.5L228.5 0Z" fill="#FFE8DF" fill-opacity="0.25"/>
<path d="M132.5 0H426L567 321.5H268.5L132.5 0Z" fill="#FFE8DF" fill-opacity="0.25"/>
<path d="M90.5 0H384L525 321.5H226.5L90.5 0Z" fill="#FFE8DF" fill-opacity="0.25"/>
<path d="M90.5 0H384L525 321.5H226.5L90.5 0Z" fill="#FFE8DF" fill-opacity="0.25"/>
<path d="M299.5 0H593L734 321.5H435.5L299.5 0Z" fill="#FFE8DF" fill-opacity="0.25"/>
<path d="M899.178 128.41V193.23H908.068V128.41H899.178ZM873.488 153.26V160.61H887.348V153.26H873.488ZM885.528 129.81V190.36H894.208V129.81H885.528ZM871.388 136.04V137.93C871.388 153.61 866.138 164.39 851.368 173.28L856.618 179.79C874.818 169.22 880.348 154.52 880.348 136.04H871.388ZM855.008 136.04V143.46H874.328V136.04H855.008ZM946.423 133.38V142.83C946.423 155.43 941.103 167.89 929.833 172.79L935.363 180.49C948.243 174.54 953.983 159.49 953.983 142.83V133.38H946.423ZM948.243 133.38V142.83C948.243 158.79 953.983 173.21 966.513 178.95L971.973 171.46C960.913 166.7 955.803 154.8 955.803 142.83V133.38H948.243ZM975.053 128.34V193.37H984.433V128.34H975.053ZM1010.33 133.66V141.15H1044.91V133.66H1010.33ZM1009.63 167.54C1020.34 167.54 1035.04 167.26 1047.78 165.02L1047.15 158.23C1034.69 159.84 1019.64 159.98 1008.65 160.05L1009.63 167.54ZM1015.44 139.4V161.45H1024.4V139.4H1015.44ZM1030.91 139.4V161.45H1039.8V139.4H1030.91ZM1050.72 128.48V176.22H1060.03V128.48H1050.72ZM1057.37 146.68V154.38H1068.64V146.68H1057.37ZM1018.24 184.69V192.11H1062.34V184.69H1018.24ZM1018.24 171.74V186.65H1027.55V171.74H1018.24Z" fill="white"/>
</svg>