<svg width="150" height="167" viewBox="0 0 150 167" fill="none" xmlns="http://www.w3.org/2000/svg">
<path d="M116.891 40.1387L80.7528 30.1247L72.9329 6.34271C71.7654 2.76632 75.0221 -0.648184 78.6359 0.353217L134.029 15.7028C137.643 16.7042 138.678 21.3079 135.836 23.7733L116.891 40.1387ZM78.2493 39.1592L114.388 49.1732C115.265 50.1763 116.26 51.3033 117.401 52.5618C130.569 67.2463 158.98 98.8926 146.063 145.505C141.917 160.469 126.413 169.245 111.449 165.098L21.1037 140.063C6.14018 135.917 -2.63592 120.413 1.51051 105.449C14.427 58.8365 55.0739 46.3264 73.9219 40.5137C75.5196 40.014 76.9809 39.5677 78.2493 39.1592ZM95.0804 70.5759C95.941 67.4703 94.1041 64.2252 90.9985 63.3646C87.8929 62.5041 84.6478 64.3409 83.7872 67.4465L82.6919 71.3992C80.4132 71.2845 78.0563 71.4522 75.7592 72.0622C71.1855 73.318 66.6631 76.473 65.0406 82.438C63.4807 88.1771 65.839 92.7219 68.83 95.8612C71.4193 98.5851 74.9586 100.843 77.7857 102.599L78.2265 102.873C81.4866 104.932 83.8493 106.498 85.2946 108.085C86.4842 109.387 86.5097 110.063 86.3189 110.861C85.9559 112.281 85.1848 112.979 83.8317 113.364C82.1775 113.848 79.7984 113.767 77.4221 113.017C74.3195 112.036 71.6571 110.234 68.1773 107.871C67.5905 107.465 66.9755 107.052 66.3323 106.63C63.6417 104.821 60.0054 105.546 58.2036 108.208C56.4018 110.871 57.1192 114.535 59.7816 116.337C60.2711 116.655 60.8092 117.017 61.3395 117.407C63.456 118.875 65.9082 120.558 68.6441 121.985L67.4862 126.163C66.6256 129.269 68.4625 132.514 71.5681 133.375C74.6737 134.235 77.9188 132.398 78.7794 129.293L79.859 125.397C82.2507 125.542 84.7284 125.378 87.1132 124.671C91.8468 123.277 96.0851 119.83 97.6355 113.906C99.139 108.151 96.9453 103.561 93.9448 100.236C91.2613 97.304 87.5399 94.9352 84.6438 93.099L84.4619 92.9878C81.1532 90.8853 78.803 89.3829 77.2934 87.8093C76.0678 86.5273 76.1804 86.0113 76.3212 85.5031C76.6107 84.4584 77.225 83.7775 78.7992 83.3625C80.5742 82.8815 83.0379 82.9866 85.2605 83.6328C87.963 84.4121 90.7914 85.8343 93.6624 87.5419C96.4642 89.1695 100.035 88.2436 101.69 85.4495C103.346 82.6555 102.392 79.0774 99.598 77.4215C97.8959 76.433 95.9961 75.3898 94.0086 74.4438L95.0804 70.5759Z" fill="#11D147"/>
</svg>
