<svg width="30" height="30" viewBox="0 0 30 30" fill="none" xmlns="http://www.w3.org/2000/svg">
<g clip-path="url(#clip0_50_52)">
<path d="M15 30C18.9782 30 22.7936 28.4196 25.6066 25.6066C28.4196 22.7936 30 18.9782 30 15C30 11.0218 28.4196 7.20644 25.6066 4.3934C22.7936 1.58035 18.9782 0 15 0C11.0218 0 7.20644 1.58035 4.3934 4.3934C1.58035 7.20644 0 11.0218 0 15C0 18.9782 1.58035 22.7936 4.3934 25.6066C7.20644 28.4196 11.0218 30 15 30ZM12.6562 19.6875H14.0625V15.9375H12.6562C11.877 15.9375 11.25 15.3105 11.25 14.5312C11.25 13.752 11.877 13.125 12.6562 13.125H15.4688C16.248 13.125 16.875 13.752 16.875 14.5312V19.6875H17.3438C18.123 19.6875 18.75 20.3145 18.75 21.0938C18.75 21.873 18.123 22.5 17.3438 22.5H12.6562C11.877 22.5 11.25 21.873 11.25 21.0938C11.25 20.3145 11.877 19.6875 12.6562 19.6875ZM15 7.5C15.4973 7.5 15.9742 7.69754 16.3258 8.04918C16.6775 8.40081 16.875 8.87772 16.875 9.375C16.875 9.87228 16.6775 10.3492 16.3258 10.7008C15.9742 11.0525 15.4973 11.25 15 11.25C14.5027 11.25 14.0258 11.0525 13.6742 10.7008C13.3225 10.3492 13.125 9.87228 13.125 9.375C13.125 8.87772 13.3225 8.40081 13.6742 8.04918C14.0258 7.69754 14.5027 7.5 15 7.5Z" fill="#F8B195"/>
</g>
<defs>
<clipPath id="clip0_50_52">
<rect width="30" height="30" fill="white"/>
</clipPath>
</defs>
</svg>
