<svg width="151" height="157" viewBox="0 0 151 157" fill="none" xmlns="http://www.w3.org/2000/svg">
<path d="M142.787 17.2268C143.493 22.4528 139.992 27.833 133.52 32.6684C125.703 38.4837 113.549 43.495 99.2241 46.4347C98.0793 46.0572 96.9385 45.7087 95.7473 45.4261C83.6613 42.1803 68.0793 41.5057 51.7625 43.7091C49.3528 44.0345 47.0089 44.4102 44.6729 44.8439L44.33 44.7128C36.8076 41.7672 32.005 37.5084 31.2993 32.2824C29.5663 19.4496 53.1313 5.68387 83.9067 1.52791C114.682 -2.62806 141.054 4.39406 142.787 17.2268ZM43.9729 54.5463C46.9068 53.9432 49.9396 53.4154 53.0172 52.9998C71.0759 50.5611 87.5846 51.9679 98.5241 56.1371C106.254 59.0843 111.18 63.3856 111.898 68.6987C112.055 69.86 112.004 71.0197 111.747 72.1779C110.929 76.1907 107.803 80.1899 102.977 83.857C102.952 83.8899 102.894 83.8978 102.869 83.9307C102.789 84.0006 102.706 84.0414 102.627 84.1112C93.2259 91.1159 77.5193 96.9619 59.2864 99.4241C41.9825 101.761 26.0647 100.57 15.1181 96.7859C14.5311 96.5991 13.9693 96.3793 13.4075 96.1596C5.91807 93.2391 1.11546 88.9802 0.409732 83.7542C-0.954679 73.6506 13.3847 62.9341 34.6162 56.8446C37.6059 55.9974 40.7235 55.2216 43.9729 54.5463ZM121.188 67.444C120.33 61.0857 116.547 56.2753 112.098 52.8851C120.142 50.4981 127.387 47.4503 133.417 43.9457C137.883 41.3324 141.967 38.2976 145.163 34.821L146.551 45.0988C147.308 50.7022 143.215 56.5171 135.83 61.594C131.881 64.3149 126.961 66.8419 121.342 69.0197C121.301 68.4932 121.263 67.9957 121.192 67.4731L121.188 67.444ZM115.662 96.5707C116.367 101.797 112.866 107.177 106.395 112.012C105.911 112.373 105.424 112.705 104.912 113.07C95.3898 119.618 80.3581 124.988 63.0542 127.325C44.8213 129.787 28.1267 128.317 17.2044 124.057C9.68196 121.111 4.87935 116.852 4.17362 111.626L2.78569 101.348C6.81869 103.849 11.5321 105.696 16.5311 107.031C28.6462 110.273 44.2282 110.947 60.545 108.744C76.8617 106.54 91.7066 101.757 102.528 95.4176C104.667 94.1827 106.699 92.8144 108.604 91.3747C110.242 90.1484 111.748 88.8216 113.159 87.4486C113.551 87.0704 113.91 86.6671 114.274 86.2929L114.407 87.28L114.63 88.9349L115.662 96.5707ZM124.952 95.316L123.698 86.0254L122.682 78.5057C128.034 76.5414 132.907 74.3165 137.181 71.8177C141.647 69.2044 145.731 66.1696 148.927 62.693L150.315 72.9708C150.727 76.0193 149.687 79.2638 147.201 82.5263C143.107 87.8978 135.3 92.9135 125.102 96.8626C125.064 96.3652 125.023 95.8386 124.952 95.316ZM64.3088 136.616C80.6256 134.412 95.4705 129.629 106.292 123.29C110.758 120.676 114.841 117.641 118.038 114.165L119.426 124.443C121.158 137.275 97.5934 151.041 66.8181 155.197C36.0428 159.353 9.67048 152.331 7.93752 139.498L6.54958 129.22C10.5826 131.721 15.296 133.568 20.295 134.903C32.4101 138.145 47.9921 138.819 64.3088 136.616Z" fill="#FFD600"/>
</svg>
