<svg width="400" height="495" viewBox="0 0 400 495" fill="none" xmlns="http://www.w3.org/2000/svg">
<path d="M242.278 24.0993C217.892 27.0462 198.779 42.1705 193.86 60.4315C203.784 55.0023 215.262 51.2513 227.734 49.7441L255.037 46.4447C257.767 46.1148 260.213 47.6107 260.473 49.7691C260.732 51.9274 258.711 53.9632 255.98 54.2932L251.016 54.893L228.678 57.5925C223.528 58.2149 218.589 59.2846 213.883 60.7241C206.021 63.1422 198.854 66.6211 192.636 70.9307C175.751 82.6007 165.817 100.249 168.031 118.668L168.503 122.592C168.895 125.854 172.53 128.077 176.657 127.579C180.783 127.08 183.787 124.054 183.395 120.792L182.923 116.868C181.488 104.924 186.619 93.4052 195.983 84.6346C204.352 102.41 227.309 113.495 252.656 110.432L252.967 110.394C293.931 105.27 323.258 69.3286 318.526 29.9639C317.27 19.5157 313.749 9.86374 308.454 1.42154C307.444 -0.173297 304.319 0.278961 303.425 2.0044C298.63 11.3425 287.793 18.599 274.545 20.2L242.278 24.0993Z" fill="url(#paint0_linear_0_1)"/>
<g clip-path="url(#clip0_0_1)">
<path d="M40.3906 325.146L65.1562 330.068C71.3281 331.318 77.6562 329.365 82.1094 324.912L94.1406 312.881C103.203 303.818 118.437 306.318 124.141 317.725L131.406 332.178C135.156 339.678 142.812 344.443 151.25 344.443C163.125 344.443 171.641 333.037 168.203 321.631L163.516 306.084C159.922 294.053 168.906 281.943 181.484 281.943H183.281C193.75 281.943 203.516 276.709 209.297 268.037L217.656 255.459C222.031 248.818 221.797 240.146 217.031 233.818L204.453 217.021C196.406 206.318 201.875 190.85 214.922 187.568L228.203 184.209C234.062 182.725 238.828 178.584 241.094 172.959L253.906 141.006C237.031 135.303 218.906 132.1 200 132.1C110.234 132.1 37.5 204.834 37.5 294.6C37.5 305.068 38.5156 315.303 40.3906 325.146ZM358.906 328.74C356.562 328.506 354.219 328.662 351.875 329.365L339.531 332.803C334.297 334.287 328.75 332.1 325.859 327.568L324.297 325.146C319.609 317.803 311.484 313.35 302.734 313.35C293.984 313.35 285.859 317.803 281.172 325.146L276.406 332.568C275.312 334.287 273.75 335.771 271.953 336.709L243.75 352.49C229.609 360.381 223.828 377.803 230.469 392.568L234.766 402.256C241.484 417.256 258.75 424.521 274.219 418.74L276.25 417.959C284.062 415.068 292.891 416.24 299.609 421.162L300.781 422.021C329.844 398.975 350.859 366.24 358.906 328.662V328.74ZM0 294.6C0 241.556 21.0714 190.686 58.5786 153.178C96.0859 115.671 146.957 94.5996 200 94.5996C253.043 94.5996 303.914 115.671 341.421 153.178C378.929 190.686 400 241.556 400 294.6C400 347.643 378.929 398.514 341.421 436.021C303.914 473.528 253.043 494.6 200 494.6C146.957 494.6 96.0859 473.528 58.5786 436.021C21.0714 398.514 0 347.643 0 294.6ZM112.891 366.553C111.25 373.271 115.313 380.068 121.953 381.709L146.953 387.959C153.672 389.6 160.469 385.537 162.109 378.896C163.75 372.256 159.688 365.381 153.047 363.74L128.047 357.49C121.328 355.85 114.531 359.912 112.891 366.553ZM184.766 350.928C183.125 357.646 187.188 364.443 193.828 366.084C200.469 367.725 207.344 363.662 208.984 357.021L215.234 332.021C216.875 325.303 212.812 318.506 206.172 316.865C199.531 315.225 192.656 319.287 191.016 325.928L184.766 350.928ZM268.125 183.428C261.953 180.303 254.453 182.881 251.328 189.053L238.828 214.053C235.703 220.225 238.281 227.725 244.453 230.85C250.625 233.975 258.125 231.396 261.25 225.225L273.75 200.225C276.875 194.053 274.297 186.553 268.125 183.428Z" fill="url(#paint1_linear_0_1)"/>
</g>
<defs>
<linearGradient id="paint0_linear_0_1" x1="235.425" y1="8.98384" x2="248.705" y2="118.872" gradientUnits="userSpaceOnUse">
<stop stop-color="#34DE63"/>
<stop offset="1" stop-color="#34DE63"/>
</linearGradient>
<linearGradient id="paint1_linear_0_1" x1="200" y1="94.5996" x2="200" y2="494.6" gradientUnits="userSpaceOnUse">
<stop stop-color="#34DE63"/>
<stop offset="1" stop-color="#1353F9" stop-opacity="0.59"/>
</linearGradient>
<clipPath id="clip0_0_1">
<rect width="400" height="400" fill="white" transform="translate(0 94.5996)"/>
</clipPath>
</defs>
</svg>
