<svg width="71" height="44" viewBox="0 0 71 44" fill="none" xmlns="http://www.w3.org/2000/svg">
<path d="M3.60107 35.8359C3.3667 35.8359 3.19743 35.7708 3.09326 35.6406C2.9891 35.5104 2.91097 35.3411 2.85889 35.1328C2.83285 34.9505 2.83285 34.7422 2.85889 34.5078C2.88493 34.2995 2.89795 34.1302 2.89795 34L9.73389 5.01562C9.78597 4.78125 9.89014 4.53385 10.0464 4.27344C10.2287 3.98698 10.411 3.77865 10.5933 3.64844C10.6714 3.88281 10.7886 4.13021 10.9448 4.39062C11.1011 4.625 11.2964 4.83333 11.5308 5.01562L22.3901 29.8984C22.4162 29.9245 22.4292 29.9896 22.4292 30.0938V30.3281C22.4292 30.5885 22.3771 30.8229 22.2729 31.0312C22.1688 31.2135 21.9865 31.3047 21.7261 31.3047C21.3875 31.3047 21.1532 31.1484 21.0229 30.8359L18.2886 24.5078C18.2886 24.4818 18.1193 24.4557 17.7808 24.4297C17.4683 24.3776 17.2209 24.3516 17.0386 24.3516C16.9344 24.3516 16.7782 24.3646 16.5698 24.3906C16.3875 24.3906 16.1922 24.4036 15.9839 24.4297C15.7756 24.4297 15.5802 24.4427 15.3979 24.4688C15.2417 24.4948 15.1506 24.5078 15.1245 24.5078C14.5256 24.612 13.7443 24.7552 12.7808 24.9375C11.8433 25.0938 10.9188 25.276 10.0073 25.4844C9.09587 25.6667 8.3016 25.8359 7.62451 25.9922C6.97347 26.1484 6.62191 26.2526 6.56982 26.3047L4.26514 35.3281C4.2391 35.5104 4.16097 35.6406 4.03076 35.7188C3.90055 35.7969 3.75732 35.8359 3.60107 35.8359ZM10.5933 7.71094C10.5672 7.78906 10.5282 7.89323 10.4761 8.02344C10.45 8.1276 10.411 8.25781 10.3589 8.41406C10.3068 8.54427 10.2677 8.67448 10.2417 8.80469C10.2157 8.9349 10.1896 9.02604 10.1636 9.07812C9.98128 9.75521 9.78597 10.5755 9.57764 11.5391L8.21045 17.6719C7.97607 18.7396 7.76774 19.7161 7.58545 20.6016C7.4292 21.487 7.28597 22.2552 7.15576 22.9062C7.0516 23.5573 6.99951 23.974 6.99951 24.1562C7.3641 24.1562 7.87191 24.1302 8.52295 24.0781C9.17399 24.026 9.8641 23.9479 10.5933 23.8438C11.3485 23.7135 12.1037 23.5833 12.8589 23.4531C13.6401 23.3229 14.3302 23.1667 14.9292 22.9844C15.5542 22.8021 16.062 22.6198 16.4526 22.4375C16.8433 22.2292 17.0386 22.0208 17.0386 21.8125C17.0386 21.7604 17.0256 21.6823 16.9995 21.5781C16.9995 21.4479 16.9865 21.3568 16.9604 21.3047L10.5933 7.71094Z" fill="white"/>
<path d="M29.367 16.2266C29.5233 16.2266 29.6925 16.2786 29.8748 16.3828C30.0832 16.487 30.2134 16.6302 30.2654 16.8125L32.9998 30.3672C33.3123 30.8359 33.5337 31.2135 33.6639 31.5C33.8201 31.7865 33.8983 32.1641 33.8983 32.6328C33.8983 32.8672 33.8592 33.1667 33.7811 33.5312C33.7029 33.8698 33.5207 34.0391 33.2342 34.0391H33.0779C33.0259 34.0391 32.9998 34.026 32.9998 34C32.9477 33.974 32.8696 33.9219 32.7654 33.8438L32.1795 33.2578C32.1014 33.1797 32.0623 33.1276 32.0623 33.1016L29.367 17.6719V16.2266ZM28.7029 7.47656C29.2759 7.47656 29.6925 7.55469 29.9529 7.71094C30.2394 7.84115 30.3826 8.17969 30.3826 8.72656C30.3826 8.90885 30.3696 9.13021 30.3436 9.39062C30.3175 9.65104 30.1613 9.82031 29.8748 9.89844C29.354 9.6901 29.0285 9.35156 28.8983 8.88281C28.7681 8.41406 28.7029 7.94531 28.7029 7.47656Z" fill="white"/>
<path d="M42.0079 33.1016C41.9819 32.4245 41.9168 31.3828 41.8126 29.9766C41.7085 28.5443 41.5913 26.9427 41.4611 25.1719C41.3569 23.375 41.2397 21.5 41.1095 19.5469C41.0053 17.5677 40.8882 15.6797 40.7579 13.8828C40.6538 12.0859 40.5366 10.4844 40.4064 9.07812C40.3022 7.64583 40.2371 6.59115 40.2111 5.91406V5.40625C40.2111 4.80729 40.5106 4.50781 41.1095 4.50781C41.1616 4.50781 41.2397 4.52083 41.3439 4.54688C41.4481 4.54688 41.5262 4.54688 41.5783 4.54688C41.7345 6.8125 41.8777 8.98698 42.0079 11.0703C42.1382 13.1536 42.2684 15.224 42.3986 17.2812C42.5288 19.3385 42.672 21.4089 42.8283 23.4922C42.9845 25.5495 43.1668 27.6979 43.3751 29.9375C43.6616 30.224 43.8178 30.5625 43.8439 30.9531C43.8699 31.3177 43.8829 31.6953 43.8829 32.0859C43.8829 32.2682 43.8699 32.4766 43.8439 32.7109C43.8439 32.9193 43.8048 33.1276 43.7267 33.3359C43.6486 33.5182 43.5184 33.6875 43.3361 33.8438C43.1798 33.974 42.9715 34.0391 42.7111 34.0391C42.4767 34.0391 42.3074 33.9479 42.2033 33.7656C42.1251 33.5833 42.06 33.362 42.0079 33.1016Z" fill="white"/>
<path d="M66.1723 40.4062C66.1723 38.9219 66.2505 37.4505 66.4067 35.9922C66.563 34.5599 66.6411 33.1146 66.6411 31.6562C66.6411 31.0312 66.4588 30.4974 66.0942 30.0547C65.7557 29.5859 65.339 29.1823 64.8442 28.8438C63.49 27.8542 62.1749 26.9297 60.8989 26.0703C59.6489 25.2109 58.4249 24.3516 57.227 23.4922C56.0291 22.6068 54.8442 21.6823 53.6723 20.7188C52.5265 19.7552 51.4067 18.6745 50.313 17.4766L51.2114 16.5781C51.4718 16.7865 51.8755 17.112 52.4223 17.5547C52.9692 17.9714 53.5812 18.4531 54.2583 19C54.9353 19.5208 55.6515 20.0807 56.4067 20.6797C57.1619 21.2786 57.8781 21.8516 58.5551 22.3984C59.2583 22.9193 59.8833 23.401 60.4301 23.8438C60.977 24.2604 61.3807 24.5599 61.6411 24.7422C61.9275 24.9505 62.3051 25.2109 62.7739 25.5234C63.2687 25.8099 63.7505 26.0964 64.2192 26.3828C64.714 26.6693 65.1437 26.9297 65.5083 27.1641C65.8989 27.3724 66.1202 27.4766 66.1723 27.4766H66.6411V26.9688C66.6671 26.6302 66.6801 26.1224 66.6801 25.4453C66.7062 24.7682 66.7322 24.013 66.7583 23.1797C66.7843 22.3203 66.8103 21.4089 66.8364 20.4453C66.8885 19.4818 66.9275 18.5703 66.9536 17.7109C67.0057 16.8516 67.0317 16.0833 67.0317 15.4062C67.0577 14.7292 67.0708 14.2214 67.0708 13.8828C67.1749 13.5964 67.3702 13.4271 67.6567 13.375C67.9692 13.2969 68.2426 13.2578 68.477 13.2578C68.477 15.5234 68.451 17.8021 68.3989 20.0938L68.1645 26.8906C68.1124 29.1823 68.0604 31.474 68.0083 33.7656C67.9562 36.0312 67.9562 38.2969 68.0083 40.5625C67.8781 40.7708 67.7218 40.9792 67.5395 41.1875C67.3572 41.4219 67.1228 41.5391 66.8364 41.5391C66.576 41.5391 66.3937 41.4089 66.2895 41.1484C66.2114 40.888 66.1723 40.6406 66.1723 40.4062Z" fill="white"/>
<path d="M3.60107 35.8359C3.3667 35.8359 3.19743 35.7708 3.09326 35.6406C2.9891 35.5104 2.91097 35.3411 2.85889 35.1328C2.83285 34.9505 2.83285 34.7422 2.85889 34.5078C2.88493 34.2995 2.89795 34.1302 2.89795 34L9.73389 5.01562C9.78597 4.78125 9.89014 4.53385 10.0464 4.27344C10.2287 3.98698 10.411 3.77865 10.5933 3.64844C10.6714 3.88281 10.7886 4.13021 10.9448 4.39062C11.1011 4.625 11.2964 4.83333 11.5308 5.01562L22.3901 29.8984C22.4162 29.9245 22.4292 29.9896 22.4292 30.0938V30.3281C22.4292 30.5885 22.3771 30.8229 22.2729 31.0312C22.1688 31.2135 21.9865 31.3047 21.7261 31.3047C21.3875 31.3047 21.1532 31.1484 21.0229 30.8359L18.2886 24.5078C18.2886 24.4818 18.1193 24.4557 17.7808 24.4297C17.4683 24.3776 17.2209 24.3516 17.0386 24.3516C16.9344 24.3516 16.7782 24.3646 16.5698 24.3906C16.3875 24.3906 16.1922 24.4036 15.9839 24.4297C15.7756 24.4297 15.5802 24.4427 15.3979 24.4688C15.2417 24.4948 15.1506 24.5078 15.1245 24.5078C14.5256 24.612 13.7443 24.7552 12.7808 24.9375C11.8433 25.0938 10.9188 25.276 10.0073 25.4844C9.09587 25.6667 8.3016 25.8359 7.62451 25.9922C6.97347 26.1484 6.62191 26.2526 6.56982 26.3047L4.26514 35.3281C4.2391 35.5104 4.16097 35.6406 4.03076 35.7188C3.90055 35.7969 3.75732 35.8359 3.60107 35.8359ZM10.5933 7.71094C10.5672 7.78906 10.5282 7.89323 10.4761 8.02344C10.45 8.1276 10.411 8.25781 10.3589 8.41406C10.3068 8.54427 10.2677 8.67448 10.2417 8.80469C10.2157 8.9349 10.1896 9.02604 10.1636 9.07812C9.98128 9.75521 9.78597 10.5755 9.57764 11.5391L8.21045 17.6719C7.97607 18.7396 7.76774 19.7161 7.58545 20.6016C7.4292 21.487 7.28597 22.2552 7.15576 22.9062C7.0516 23.5573 6.99951 23.974 6.99951 24.1562C7.3641 24.1562 7.87191 24.1302 8.52295 24.0781C9.17399 24.026 9.8641 23.9479 10.5933 23.8438C11.3485 23.7135 12.1037 23.5833 12.8589 23.4531C13.6401 23.3229 14.3302 23.1667 14.9292 22.9844C15.5542 22.8021 16.062 22.6198 16.4526 22.4375C16.8433 22.2292 17.0386 22.0208 17.0386 21.8125C17.0386 21.7604 17.0256 21.6823 16.9995 21.5781C16.9995 21.4479 16.9865 21.3568 16.9604 21.3047L10.5933 7.71094Z" stroke="white" stroke-width="4"/>
<path d="M29.367 16.2266C29.5233 16.2266 29.6925 16.2786 29.8748 16.3828C30.0832 16.487 30.2134 16.6302 30.2654 16.8125L32.9998 30.3672C33.3123 30.8359 33.5337 31.2135 33.6639 31.5C33.8201 31.7865 33.8983 32.1641 33.8983 32.6328C33.8983 32.8672 33.8592 33.1667 33.7811 33.5312C33.7029 33.8698 33.5207 34.0391 33.2342 34.0391H33.0779C33.0259 34.0391 32.9998 34.026 32.9998 34C32.9477 33.974 32.8696 33.9219 32.7654 33.8438L32.1795 33.2578C32.1014 33.1797 32.0623 33.1276 32.0623 33.1016L29.367 17.6719V16.2266ZM28.7029 7.47656C29.2759 7.47656 29.6925 7.55469 29.9529 7.71094C30.2394 7.84115 30.3826 8.17969 30.3826 8.72656C30.3826 8.90885 30.3696 9.13021 30.3436 9.39062C30.3175 9.65104 30.1613 9.82031 29.8748 9.89844C29.354 9.6901 29.0285 9.35156 28.8983 8.88281C28.7681 8.41406 28.7029 7.94531 28.7029 7.47656Z" stroke="white" stroke-width="4"/>
<path d="M42.0079 33.1016C41.9819 32.4245 41.9168 31.3828 41.8126 29.9766C41.7085 28.5443 41.5913 26.9427 41.4611 25.1719C41.3569 23.375 41.2397 21.5 41.1095 19.5469C41.0053 17.5677 40.8882 15.6797 40.7579 13.8828C40.6538 12.0859 40.5366 10.4844 40.4064 9.07812C40.3022 7.64583 40.2371 6.59115 40.2111 5.91406V5.40625C40.2111 4.80729 40.5106 4.50781 41.1095 4.50781C41.1616 4.50781 41.2397 4.52083 41.3439 4.54688C41.4481 4.54688 41.5262 4.54688 41.5783 4.54688C41.7345 6.8125 41.8777 8.98698 42.0079 11.0703C42.1382 13.1536 42.2684 15.224 42.3986 17.2812C42.5288 19.3385 42.672 21.4089 42.8283 23.4922C42.9845 25.5495 43.1668 27.6979 43.3751 29.9375C43.6616 30.224 43.8178 30.5625 43.8439 30.9531C43.8699 31.3177 43.8829 31.6953 43.8829 32.0859C43.8829 32.2682 43.8699 32.4766 43.8439 32.7109C43.8439 32.9193 43.8048 33.1276 43.7267 33.3359C43.6486 33.5182 43.5184 33.6875 43.3361 33.8438C43.1798 33.974 42.9715 34.0391 42.7111 34.0391C42.4767 34.0391 42.3074 33.9479 42.2033 33.7656C42.1251 33.5833 42.06 33.362 42.0079 33.1016Z" stroke="white" stroke-width="4"/>
<path d="M66.1723 40.4062C66.1723 38.9219 66.2505 37.4505 66.4067 35.9922C66.563 34.5599 66.6411 33.1146 66.6411 31.6562C66.6411 31.0312 66.4588 30.4974 66.0942 30.0547C65.7557 29.5859 65.339 29.1823 64.8442 28.8438C63.49 27.8542 62.1749 26.9297 60.8989 26.0703C59.6489 25.2109 58.4249 24.3516 57.227 23.4922C56.0291 22.6068 54.8442 21.6823 53.6723 20.7188C52.5265 19.7552 51.4067 18.6745 50.313 17.4766L51.2114 16.5781C51.4718 16.7865 51.8755 17.112 52.4223 17.5547C52.9692 17.9714 53.5812 18.4531 54.2583 19C54.9353 19.5208 55.6515 20.0807 56.4067 20.6797C57.1619 21.2786 57.8781 21.8516 58.5551 22.3984C59.2583 22.9193 59.8833 23.401 60.4301 23.8438C60.977 24.2604 61.3807 24.5599 61.6411 24.7422C61.9275 24.9505 62.3051 25.2109 62.7739 25.5234C63.2687 25.8099 63.7505 26.0964 64.2192 26.3828C64.714 26.6693 65.1437 26.9297 65.5083 27.1641C65.8989 27.3724 66.1202 27.4766 66.1723 27.4766H66.6411V26.9688C66.6671 26.6302 66.6801 26.1224 66.6801 25.4453C66.7062 24.7682 66.7322 24.013 66.7583 23.1797C66.7843 22.3203 66.8103 21.4089 66.8364 20.4453C66.8885 19.4818 66.9275 18.5703 66.9536 17.7109C67.0057 16.8516 67.0317 16.0833 67.0317 15.4062C67.0577 14.7292 67.0708 14.2214 67.0708 13.8828C67.1749 13.5964 67.3702 13.4271 67.6567 13.375C67.9692 13.2969 68.2426 13.2578 68.477 13.2578C68.477 15.5234 68.451 17.8021 68.3989 20.0938L68.1645 26.8906C68.1124 29.1823 68.0604 31.474 68.0083 33.7656C67.9562 36.0312 67.9562 38.2969 68.0083 40.5625C67.8781 40.7708 67.7218 40.9792 67.5395 41.1875C67.3572 41.4219 67.1228 41.5391 66.8364 41.5391C66.576 41.5391 66.3937 41.4089 66.2895 41.1484C66.2114 40.888 66.1723 40.6406 66.1723 40.4062Z" stroke="white" stroke-width="4"/>
</svg>
