<svg width="450" height="129" viewBox="0 0 450 129" fill="none" xmlns="http://www.w3.org/2000/svg">
<path d="M437.27 48.4741C451.177 39.679 454.146 22.8943 443.911 10.9436C433.677 -1.00709 414.145 -3.55836 400.239 5.23681L306.722 64.4531H212.502C205.627 64.4531 200.002 59.6191 200.002 53.7109C200.002 47.8027 205.627 42.9688 212.502 42.9688H225.002H275.003C288.831 42.9688 300.003 33.3679 300.003 21.4844C300.003 9.60083 288.831 0 275.003 0H225.002H212.502H151.33C128.595 0 106.564 6.64673 88.8291 18.7988L53.7506 42.9688H25.0003C11.172 42.9688 0 52.5696 0 64.4531V107.422C0 119.305 11.172 128.906 25.0003 128.906H150.002H275.394C298.05 128.906 320.16 122.662 338.441 111.115L437.349 48.4741H437.27ZM151.252 42.9016C151.286 42.9498 151.306 43.0047 151.309 43.0611C151.312 43.1175 151.298 43.1737 151.269 43.2245C151.24 43.2752 151.197 43.3188 151.143 43.3513C151.089 43.3838 151.027 43.4041 150.962 43.4104C150.896 43.4166 150.83 43.4086 150.769 43.387C150.709 43.3655 150.655 43.3311 150.614 43.287C150.573 43.243 150.545 43.1907 150.534 43.1351C150.522 43.0795 150.527 43.0222 150.549 42.9688C150.514 42.9206 150.495 42.8657 150.492 42.8093C150.489 42.7528 150.502 42.6966 150.531 42.6459C150.56 42.5952 150.603 42.5515 150.657 42.519C150.711 42.4865 150.773 42.4662 150.839 42.46C150.904 42.4537 150.97 42.4618 151.031 42.4833C151.092 42.5049 151.145 42.5393 151.186 42.5833C151.227 42.6274 151.255 42.6796 151.266 42.7353C151.278 42.7909 151.273 42.8481 151.252 42.9016Z" fill="#FFC7B0"/>
</svg>
