<svg width="242" height="226" viewBox="0 0 242 226" fill="none" xmlns="http://www.w3.org/2000/svg">
<g clip-path="url(#clip0_7_21)">
<path d="M48.0452 81.4859C51.3988 93.2752 44.5403 105.587 32.7511 108.94L47.9514 162.376C59.7406 159.022 72.0522 165.881 75.4058 177.67L192.964 144.229C189.611 132.44 196.469 120.129 208.258 116.775L193.058 63.3393C181.269 66.6929 168.957 59.8344 165.604 48.0452L48.0452 81.4859ZM12.1603 97.4697C8.8067 85.6805 15.6652 73.3689 27.4544 70.0153L177.074 27.4544C188.863 24.1008 201.175 30.9593 204.529 42.7485L228.849 128.246C232.203 140.035 225.344 152.346 213.555 155.7L63.9352 198.261C52.146 201.614 39.8344 194.756 36.4808 182.967L12.1603 97.4697ZM83.0998 123.498C81.7025 118.586 81.2864 113.447 81.8752 108.374C82.464 103.301 84.0463 98.3935 86.5316 93.9321C89.017 89.4707 92.3567 85.5425 96.3602 82.3718C100.364 79.2011 104.952 76.85 109.864 75.4527C114.777 74.0554 119.916 73.6393 124.989 74.2281C130.062 74.817 134.969 76.3992 139.43 78.8846C143.892 81.3699 147.82 84.7096 150.991 88.7131C154.161 92.7166 156.512 97.3053 157.91 102.217C159.307 107.13 159.723 112.269 159.134 117.342C158.545 122.415 156.963 127.322 154.478 131.783C151.992 136.245 148.653 140.173 144.649 143.343C140.646 146.514 136.057 148.865 131.145 150.263C126.233 151.66 121.094 152.076 116.021 151.487C110.948 150.898 106.041 149.316 101.579 146.831C97.1178 144.345 93.1896 141.006 90.0189 137.002C86.8482 132.999 84.4971 128.41 83.0998 123.498ZM105.257 99.867C106.094 102.806 109.182 104.527 112.121 103.691L118.201 125.065L115.529 125.825C112.59 126.661 110.87 129.749 111.706 132.688C112.542 135.627 115.631 137.348 118.57 136.512L126.585 134.232L134.6 131.952C137.539 131.116 139.26 128.027 138.424 125.088C137.588 122.149 134.499 120.429 131.56 121.265L128.888 122.025L121.288 95.3069C120.452 92.368 117.364 90.6474 114.425 91.4834L109.081 93.0034C106.142 93.8394 104.421 96.9281 105.257 99.867Z" fill="#4DB4EE"/>
</g>
<defs>
<clipPath id="clip0_7_21">
<rect width="200" height="177.778" fill="white" transform="translate(0 54.7212) rotate(-15.879)"/>
</clipPath>
</defs>
</svg>
