<svg width="196" height="398" viewBox="0 0 196 398" fill="none" xmlns="http://www.w3.org/2000/svg">
<g filter="url(#filter0_d_18_67)">
<rect x="4" width="188" height="384" rx="94" fill="url(#paint0_linear_18_67)" shape-rendering="crispEdges"/>
</g>
<path d="M7.44933 194.501C-23.0508 126.501 157.949 272.998 187.449 212.501C216.949 152.004 37.9495 262.501 7.44933 194.501Z" stroke="white" stroke-width="5" stroke-linecap="round"/>
<path d="M8.39855 183.437C-22.1016 115.437 158.898 261.934 188.399 201.437C217.899 140.94 38.8987 251.437 8.39855 183.437Z" stroke="white" stroke-opacity="0.5" stroke-width="5" stroke-linecap="round"/>
<path d="M27.5447 327.952V324.809L36.8026 310.182H39.4233V314.656H37.8253L31.593 324.532V324.702H44.5156V327.952H27.5447ZM37.9531 332V326.993L37.9957 325.587V310.182H41.7244V332H37.9531ZM55.7496 332.298C54.2156 332.298 52.8519 332.036 51.6587 331.51C50.4727 330.984 49.5352 330.253 48.8462 329.315C48.1573 328.378 47.7915 327.295 47.7489 326.066H51.7546C51.7901 326.656 51.9854 327.17 52.3406 327.611C52.6957 328.044 53.168 328.381 53.7575 328.623C54.3469 328.864 55.0075 328.985 55.739 328.985C56.5202 328.985 57.2127 328.85 57.8164 328.58C58.4201 328.303 58.8924 327.92 59.2333 327.43C59.5742 326.94 59.7411 326.375 59.734 325.736C59.7411 325.075 59.5707 324.493 59.2227 323.989C58.8746 323.484 58.3704 323.09 57.7099 322.806C57.0565 322.522 56.2681 322.38 55.3448 322.38H53.4165V319.333H55.3448C56.1048 319.333 56.7688 319.202 57.337 318.939C57.9123 318.676 58.3633 318.307 58.69 317.831C59.0167 317.348 59.1765 316.79 59.1694 316.158C59.1765 315.54 59.038 315.004 58.7539 314.55C58.4769 314.088 58.0827 313.729 57.5714 313.474C57.0671 313.218 56.4741 313.09 55.7923 313.09C55.1246 313.09 54.5067 313.211 53.9386 313.452C53.3704 313.694 52.9123 314.038 52.5643 314.486C52.2163 314.926 52.0316 315.452 52.0103 316.062H48.207C48.2354 314.841 48.587 313.768 49.2617 312.845C49.9435 311.915 50.8526 311.19 51.989 310.672C53.1254 310.146 54.4002 309.884 55.8136 309.884C57.2695 309.884 58.5337 310.157 59.6062 310.704C60.6857 311.244 61.5202 311.972 62.1097 312.888C62.6992 313.804 62.994 314.816 62.994 315.924C63.0011 317.153 62.6388 318.183 61.9073 319.013C61.1829 319.844 60.2312 320.388 59.0522 320.643V320.814C60.5863 321.027 61.7617 321.595 62.5785 322.518C63.4023 323.435 63.8107 324.575 63.8036 325.938C63.8036 327.16 63.4556 328.254 62.7596 329.219C62.0707 330.178 61.119 330.931 59.9045 331.478C58.6971 332.025 57.3121 332.298 55.7496 332.298ZM79.1259 327.909V326.759C79.1259 325.913 79.3034 325.136 79.6586 324.425C80.0208 323.715 80.5463 323.143 81.2353 322.71C81.9242 322.277 82.7587 322.06 83.7388 322.06C84.7473 322.06 85.5925 322.277 86.2743 322.71C86.9561 323.136 87.4711 323.705 87.8191 324.415C88.1742 325.125 88.3517 325.906 88.3517 326.759V327.909C88.3517 328.754 88.1742 329.532 87.8191 330.242C87.464 330.952 86.9419 331.524 86.253 331.957C85.5712 332.391 84.7331 332.607 83.7388 332.607C82.7445 332.607 81.9029 332.391 81.214 331.957C80.525 331.524 80.003 330.952 79.6479 330.242C79.2999 329.532 79.1259 328.754 79.1259 327.909ZM81.9064 326.759V327.909C81.9064 328.47 82.0414 328.985 82.3113 329.454C82.5811 329.923 83.057 330.157 83.7388 330.157C84.4277 330.157 84.9 329.926 85.1557 329.464C85.4185 328.996 85.5499 328.477 85.5499 327.909V326.759C85.5499 326.19 85.4256 325.672 85.177 325.203C84.9284 324.727 84.449 324.489 83.7388 324.489C83.0712 324.489 82.5989 324.727 82.3219 325.203C82.0449 325.672 81.9064 326.19 81.9064 326.759ZM68.0357 315.423V314.273C68.0357 313.42 68.2168 312.639 68.579 311.929C68.9412 311.219 69.4668 310.651 70.1557 310.224C70.8446 309.791 71.6792 309.575 72.6593 309.575C73.6607 309.575 74.5023 309.791 75.1841 310.224C75.873 310.651 76.3915 311.219 76.7395 311.929C77.0875 312.639 77.2615 313.42 77.2615 314.273V315.423C77.2615 316.276 77.084 317.057 76.7289 317.767C76.3809 318.47 75.8624 319.035 75.1735 319.461C74.4846 319.887 73.6465 320.1 72.6593 320.1C71.6578 320.1 70.8127 319.887 70.1238 319.461C69.4419 319.035 68.9235 318.467 68.5684 317.756C68.2132 317.046 68.0357 316.268 68.0357 315.423ZM70.8375 314.273V315.423C70.8375 315.991 70.9689 316.51 71.2317 316.979C71.5016 317.44 71.9775 317.671 72.6593 317.671C73.3411 317.671 73.8098 317.44 74.0655 316.979C74.3283 316.51 74.4597 315.991 74.4597 315.423V314.273C74.4597 313.705 74.3354 313.186 74.0868 312.717C73.8382 312.241 73.3624 312.004 72.6593 312.004C71.9846 312.004 71.5123 312.241 71.2424 312.717C70.9725 313.193 70.8375 313.712 70.8375 314.273ZM69.2502 332L84.2502 310.182H86.9135L71.9135 332H69.2502Z" fill="white"/>
<defs>
<filter id="filter0_d_18_67" x="0" y="0" width="196" height="398" filterUnits="userSpaceOnUse" color-interpolation-filters="sRGB">
<feFlood flood-opacity="0" result="BackgroundImageFix"/>
<feColorMatrix in="SourceAlpha" type="matrix" values="0 0 0 0 0 0 0 0 0 0 0 0 0 0 0 0 0 0 127 0" result="hardAlpha"/>
<feOffset dy="10"/>
<feGaussianBlur stdDeviation="2"/>
<feComposite in2="hardAlpha" operator="out"/>
<feColorMatrix type="matrix" values="0 0 0 0 0 0 0 0 0 0 0 0 0 0 0 0 0 0 0.2 0"/>
<feBlend mode="normal" in2="BackgroundImageFix" result="effect1_dropShadow_18_67"/>
<feBlend mode="normal" in="SourceGraphic" in2="effect1_dropShadow_18_67" result="shape"/>
</filter>
<linearGradient id="paint0_linear_18_67" x1="98" y1="0" x2="98" y2="384" gradientUnits="userSpaceOnUse">
<stop stop-color="#F6F6F6" stop-opacity="0"/>
<stop offset="0.70005" stop-color="#EDCFC3"/>
</linearGradient>
</defs>
</svg>
