<svg width="463" height="794" viewBox="0 0 463 794" fill="none" xmlns="http://www.w3.org/2000/svg">
<g filter="url(#filter0_d_0_1)">
<path d="M40 101.847C40 65.4806 68.4648 36 103.578 36H359.422C394.535 36 423 65.4806 423 101.847V684.153C423 720.519 394.535 750 359.422 750H103.578C68.4648 750 40 720.519 40 684.153V101.847Z" fill="white"/>
<path d="M168.688 36H289.716C289.716 44.7629 282.857 51.8667 274.396 51.8667H184.008C175.547 51.8667 168.688 44.7629 168.688 36Z" fill="black"/>
<path d="M158.688 26H103.578C62.6144 26 30 60.2911 30 101.847V684.153C30 725.709 62.6144 760 103.578 760H359.422C400.386 760 433 725.709 433 684.153V101.847C433 60.2911 400.386 26 359.422 26H299.716H289.716H168.688H158.688Z" stroke="black" stroke-width="20"/>
</g>
<line x1="131" y1="395" x2="331" y2="395" stroke="#ECBBA7" stroke-width="10"/>
<path d="M324.939 440.475V488.152M324.939 488.152V493M324.939 488.152H331M324.939 488.152H278.475M183.525 486.939H135.848M135.848 486.939H131M135.848 486.939V493M135.848 486.939V440.475M278.475 299.061H326.152M326.152 299.061H331M326.152 299.061V293M326.152 299.061V345.525M137.061 345.525V297.848M137.061 297.848V293M137.061 297.848H131M137.061 297.848H183.525" stroke="#ECBBA7" stroke-width="12"/>
<path d="M156 333.786C156 324.913 163.199 317.714 172.071 317.714H204.214C213.087 317.714 220.286 324.913 220.286 333.786V365.929C220.286 374.801 213.087 382 204.214 382H172.071C163.199 382 156 374.801 156 365.929V333.786ZM177.429 339.143V360.571H198.857V339.143H177.429ZM156 419.5C156 410.627 163.199 403.429 172.071 403.429H204.214C213.087 403.429 220.286 410.627 220.286 419.5V451.643C220.286 460.516 213.087 467.714 204.214 467.714H172.071C163.199 467.714 156 460.516 156 451.643V419.5ZM177.429 424.857V446.286H198.857V424.857H177.429ZM257.786 317.714H289.929C298.801 317.714 306 324.913 306 333.786V365.929C306 374.801 298.801 382 289.929 382H257.786C248.913 382 241.714 374.801 241.714 365.929V333.786C241.714 324.913 248.913 317.714 257.786 317.714ZM284.571 339.143H263.143V360.571H284.571V339.143ZM241.714 408.786C241.714 405.839 244.125 403.429 247.071 403.429H268.5C271.446 403.429 273.857 405.839 273.857 408.786C273.857 411.732 276.268 414.143 279.214 414.143H289.929C292.875 414.143 295.286 411.732 295.286 408.786C295.286 405.839 297.696 403.429 300.643 403.429C303.589 403.429 306 405.839 306 408.786V440.929C306 443.875 303.589 446.286 300.643 446.286H279.214C276.268 446.286 273.857 443.875 273.857 440.929C273.857 437.982 271.446 435.572 268.5 435.572C265.554 435.572 263.143 437.982 263.143 440.929V462.357C263.143 465.304 260.732 467.714 257.786 467.714H247.071C244.125 467.714 241.714 465.304 241.714 462.357V408.786ZM279.214 467.714C277.793 467.714 276.431 467.15 275.426 466.145C274.422 465.141 273.857 463.778 273.857 462.357C273.857 460.936 274.422 459.574 275.426 458.569C276.431 457.564 277.793 457 279.214 457C280.635 457 281.998 457.564 283.002 458.569C284.007 459.574 284.571 460.936 284.571 462.357C284.571 463.778 284.007 465.141 283.002 466.145C281.998 467.15 280.635 467.714 279.214 467.714ZM300.643 467.714C299.222 467.714 297.859 467.15 296.855 466.145C295.85 465.141 295.286 463.778 295.286 462.357C295.286 460.936 295.85 459.574 296.855 458.569C297.859 457.564 299.222 457 300.643 457C302.064 457 303.426 457.564 304.431 458.569C305.436 459.574 306 460.936 306 462.357C306 463.778 305.436 465.141 304.431 466.145C303.426 467.15 302.064 467.714 300.643 467.714Z" fill="#FFB49C"/>
<defs>
<filter id="filter0_d_0_1" x="0" y="0" width="463" height="794" filterUnits="userSpaceOnUse" color-interpolation-filters="sRGB">
<feFlood flood-opacity="0" result="BackgroundImageFix"/>
<feColorMatrix in="SourceAlpha" type="matrix" values="0 0 0 0 0 0 0 0 0 0 0 0 0 0 0 0 0 0 127 0" result="hardAlpha"/>
<feOffset dy="4"/>
<feGaussianBlur stdDeviation="10"/>
<feComposite in2="hardAlpha" operator="out"/>
<feColorMatrix type="matrix" values="0 0 0 0 0 0 0 0 0 0 0 0 0 0 0 0 0 0 0.3 0"/>
<feBlend mode="normal" in2="BackgroundImageFix" result="effect1_dropShadow_0_1"/>
<feBlend mode="normal" in="SourceGraphic" in2="effect1_dropShadow_0_1" result="shape"/>
</filter>
</defs>
</svg>
