<svg width="400" height="312" viewBox="0 0 400 312" fill="none" xmlns="http://www.w3.org/2000/svg">
<path d="M34.5139 0C27.2222 0 20.7639 4.79167 18.6111 11.7361L0.625 70.1389C0.208333 71.5278 0 72.9861 0 74.375C0 82.4305 6.45833 88.8889 14.5139 88.8889H79.7917L97.5694 0H34.5139ZM188.889 88.8889V0H120.208L102.431 88.8889H188.889ZM211.111 88.8889H297.569L279.792 0H211.111V88.8889ZM320.208 88.8889H385.486C393.472 88.8889 400 82.4305 400 74.375C400 72.9167 399.792 71.5278 399.375 70.1389L381.389 11.7361C379.236 4.79167 372.778 0 365.486 0H302.431L320.208 88.8889ZM22.2222 111.111L25 133.333H22.2222C9.93055 133.333 0 143.264 0 155.556C0 167.847 9.93055 177.778 22.2222 177.778H30.5556L44.4444 288.889C44.4444 301.181 54.375 311.111 66.6667 311.111C78.9583 311.111 88.8889 301.181 88.8889 288.889H311.111C311.111 301.181 321.042 311.111 333.333 311.111C345.625 311.111 355.556 301.181 355.556 288.889L369.444 177.778H377.778C390.069 177.778 400 167.847 400 155.556C400 143.264 390.069 133.333 377.778 133.333H375L377.778 111.111H22.2222Z" fill="#FFB49C"/>
<path d="M184.121 164.593C187.539 159.239 193.555 156 200 156C206.445 156 212.461 159.239 215.879 164.593L223.418 176.349L228.691 173.377C230.332 172.443 232.383 172.576 233.887 173.7C235.391 174.825 236.055 176.73 235.566 178.521L230.996 195.173C230.332 197.612 227.754 199.06 225.254 198.412L208.184 193.954C206.348 193.478 205 191.972 204.746 190.143C204.492 188.314 205.41 186.504 207.051 185.59L212.598 182.465L205.273 171.052C204.141 169.28 202.148 168.194 200 168.194C197.852 168.194 195.859 169.28 194.727 171.052L191.309 176.387C189.512 179.207 185.723 180.102 182.793 178.388C179.805 176.635 178.848 172.824 180.703 169.928L184.121 164.593ZM233.887 203.995C236.816 202.28 240.605 203.176 242.402 205.996L247.168 213.445C249.004 216.322 249.98 219.619 250.019 223.01C250.078 233.127 241.68 241.377 231.309 241.377L212.5 241.358V247.455C212.5 249.304 211.367 250.98 209.609 251.685C207.852 252.39 205.84 252.009 204.492 250.694L191.992 238.5C190.156 236.709 190.156 233.813 191.992 232.041L204.492 219.847C205.84 218.533 207.852 218.152 209.609 218.857C211.367 219.562 212.5 221.238 212.5 223.086V229.183H231.289C234.727 229.183 237.519 226.44 237.5 223.086C237.5 221.962 237.168 220.857 236.562 219.904L231.797 212.455C229.941 209.559 230.879 205.748 233.887 203.995ZM162.676 198.089L157.031 194.907C155.391 193.973 154.473 192.182 154.727 190.353C154.98 188.524 156.328 187.019 158.164 186.542L175.234 182.084C177.734 181.436 180.312 182.884 180.977 185.323L185.547 201.956C186.035 203.747 185.371 205.634 183.867 206.777C182.363 207.92 180.312 208.034 178.672 207.101L173.496 204.186L163.437 219.885C162.832 220.838 162.5 221.943 162.5 223.067C162.48 226.421 165.273 229.164 168.711 229.164H175C178.457 229.164 181.25 231.889 181.25 235.261C181.25 238.634 178.457 241.358 175 241.358H168.711C158.34 241.358 149.941 233.127 150 222.991C150.019 219.6 150.996 216.303 152.852 213.426L162.676 198.089Z" fill="white"/>
</svg>
