<svg width="100" height="88" viewBox="0 0 100 88" fill="none" xmlns="http://www.w3.org/2000/svg">
<path d="M12.5 0.25C5.60547 0.25 0 5.85547 0 12.75V75.25C0 82.1445 5.60547 87.75 12.5 87.75H87.5C94.3945 87.75 100 82.1445 100 75.25V31.5C100 24.6055 94.3945 19 87.5 19H15.625C13.9062 19 12.5 17.5938 12.5 15.875C12.5 14.1562 13.9062 12.75 15.625 12.75H87.5C90.957 12.75 93.75 9.95703 93.75 6.5C93.75 3.04297 90.957 0.25 87.5 0.25H12.5ZM81.25 47.125C82.9076 47.125 84.4973 47.7835 85.6694 48.9556C86.8415 50.1277 87.5 51.7174 87.5 53.375C87.5 55.0326 86.8415 56.6223 85.6694 57.7944C84.4973 58.9665 82.9076 59.625 81.25 59.625C79.5924 59.625 78.0027 58.9665 76.8306 57.7944C75.6585 56.6223 75 55.0326 75 53.375C75 51.7174 75.6585 50.1277 76.8306 48.9556C78.0027 47.7835 79.5924 47.125 81.25 47.125Z" fill="#F8B195"/>
</svg>
