<svg width="300" height="282" viewBox="0 0 300 282" fill="none" xmlns="http://www.w3.org/2000/svg">
<path d="M157.372 163.827C157.372 166.673 157.22 169.493 156.942 172.312C156.739 174.447 156.84 173.133 156.916 172.668C156.815 173.352 156.714 174.037 156.613 174.694C156.335 176.363 156.006 178.006 155.626 179.648C155.07 182.057 154.387 184.411 153.603 186.737C153.401 187.34 153.173 187.942 152.946 188.544C152.364 190.077 153.502 187.257 152.844 188.736C152.288 190.022 151.732 191.309 151.099 192.54C150.012 194.703 148.823 196.783 147.533 198.781C147.205 199.274 146.876 199.767 146.547 200.232C147.609 198.726 146.724 199.958 146.496 200.232C145.586 201.327 144.726 202.422 143.765 203.462C143.006 204.283 142.248 205.049 141.438 205.816C141.034 206.199 140.629 206.555 140.224 206.911C140.503 206.664 141.742 205.788 140.275 206.829C138.58 208.06 136.886 209.265 135.04 210.278C134.584 210.524 134.129 210.743 133.674 210.989C135.394 210.031 134.306 210.716 133.851 210.88C132.89 211.236 131.954 211.591 130.993 211.893C130.032 212.194 129.046 212.385 128.059 212.632C126.34 213.042 127.984 212.659 128.338 212.632C127.579 212.714 126.82 212.796 126.061 212.823C125.05 212.878 124.013 212.878 123.001 212.823C122.268 212.796 119.511 212.221 121.737 212.768C119.638 212.248 117.614 211.783 115.566 211.017C115.288 210.907 113.795 210.223 114.959 210.77C116.122 211.318 114.63 210.606 114.377 210.442C113.593 210.004 112.809 209.566 112.025 209.073C111.14 208.526 110.28 207.924 109.445 207.294C109.015 206.966 108.611 206.637 108.181 206.309C109.926 207.732 107.877 205.98 107.675 205.788C106.056 204.283 104.564 202.613 103.148 200.889C102.794 200.451 102.44 199.986 102.086 199.52C102.313 199.821 103.097 201.08 102.06 199.465C101.327 198.343 100.619 197.248 99.936 196.071C98.4692 193.553 97.2046 190.925 96.0666 188.215C96.7747 189.885 95.3584 186.19 95.2067 185.725C94.7514 184.329 94.3468 182.905 93.9674 181.482C93.2087 178.553 92.6017 175.569 92.1718 172.558C92.3994 174.201 92.1718 172.476 92.1465 172.203C92.0453 171.162 91.9441 170.122 91.8936 169.055C91.7671 167.276 91.7418 165.496 91.7165 163.717C91.6912 158.352 87.3665 153.206 82.2325 153.453C77.0984 153.699 72.7231 157.969 72.7484 163.717C72.9001 188.927 83.4464 217.531 105.829 228.644C116.046 233.708 127.857 234.967 138.555 230.752C149.253 226.537 158.383 218.079 164.832 207.568C172.698 194.73 176.238 178.991 176.34 163.717C176.365 158.352 171.964 153.206 166.856 153.453C161.747 153.699 157.397 157.969 157.372 163.717V163.827Z" fill="url(#paint0_linear_493_7310)"/>
<path d="M166.856 146.5C173.169 146.5 178.287 140.961 178.287 134.128C178.287 127.295 173.169 121.756 166.856 121.756C160.542 121.756 155.424 127.295 155.424 134.128C155.424 140.961 160.542 146.5 166.856 146.5Z" fill="#F1AD92"/>
<path d="M157.726 166.564C160.457 178.252 164.453 190.378 171.079 200.178C176.492 208.198 184.18 215.999 194.043 215.533C210.71 214.712 220.826 195.743 226.416 181.044C231.221 168.398 233.522 154.876 234.61 141.327C235.04 135.962 229.931 130.816 225.126 131.062C219.612 131.336 216.122 135.579 215.642 141.327C215.541 142.668 215.414 144.01 215.288 145.323C215.288 145.515 215.009 147.814 215.136 146.747C215.237 145.844 215.009 147.623 215.035 147.595C214.655 150.415 214.2 153.234 213.644 156.026C212.733 160.652 211.595 165.25 210.179 169.74C209.85 170.752 209.521 171.738 209.193 172.723C209.041 173.161 207.776 176.473 208.636 174.338C207.877 176.227 207.068 178.088 206.183 179.922C205.424 181.51 204.615 183.043 203.73 184.575C203.148 185.588 201.959 188.407 200.973 188.928C201.605 188.599 202.111 187.449 201.327 188.407C201.074 188.709 200.821 189.064 200.568 189.393C200.138 189.94 199.683 190.46 199.228 190.98C198.444 191.856 196.825 192.842 196.294 193.855C196.37 193.69 198.242 192.431 197.028 193.198C196.825 193.335 196.623 193.499 196.446 193.636C195.991 193.964 195.536 194.265 195.08 194.539C194.726 194.73 192.931 195.606 194.65 194.84C196.37 194.074 194.271 194.895 193.841 195.059C193.411 195.223 191.615 195.497 193.563 195.196C195.51 194.895 193.79 195.196 193.31 195.114C191.363 194.867 194.195 195.524 193.613 195.196C193.133 194.922 190.907 194.566 192.399 194.84C193.765 195.086 191.97 194.512 191.464 194.156C191.11 193.909 190.781 193.636 190.452 193.389C190.528 193.444 191.767 194.703 191.11 193.909C189.845 192.404 188.454 191.008 187.19 189.475C186.481 188.626 187.417 189.776 187.493 189.886C187.114 189.283 186.709 188.709 186.33 188.106C185.697 187.094 185.116 186.053 184.534 185.013C183.219 182.605 182.106 180.086 181.019 177.568C180.943 177.376 180.31 175.789 180.842 177.13C180.589 176.473 180.336 175.816 180.108 175.132C179.628 173.763 179.172 172.395 178.717 171.026C177.705 167.796 176.82 164.511 176.036 161.172C174.822 155.971 169.182 152.331 164.377 154C159.572 155.67 156.436 161.063 157.751 166.619L157.726 166.564Z" fill="url(#paint1_linear_493_7310)"/>
<path d="M283.902 134.045C273.153 146.691 262.809 159.803 252.87 173.188C245.08 183.671 237.493 194.374 230.538 205.542C224.847 214.712 219.309 224.374 216.072 234.912C211.443 249.94 216.072 266.528 228.439 275.369C240.806 284.21 258.939 284.101 271.585 275.697C300.214 256.646 279.956 217.969 267.918 194.867C257.751 175.35 246.471 156.491 234.711 138.069C234.306 137.44 233.902 136.783 233.497 136.153C230.563 131.609 225.201 129.502 220.523 132.458C216.375 135.086 214.175 141.929 217.108 146.5C226.567 161.171 235.596 176.226 244.144 191.527C250.164 202.339 256.006 213.316 260.988 224.73C261.544 226.016 262.101 227.303 262.632 228.617C262.834 229.137 263.037 229.684 263.264 230.177C263.846 231.546 262.404 227.796 263.138 229.876C263.998 232.23 264.858 234.584 265.566 237.02C266.173 239.128 266.678 241.235 267.083 243.398C267.159 243.781 267.437 246.464 267.235 244.11C267.285 244.767 267.336 245.396 267.387 246.053C267.437 247.093 267.412 248.133 267.387 249.173C267.311 250.433 267.285 250.624 267.311 249.721C267.159 250.487 266.982 251.226 266.78 251.965C266.071 254.21 266.957 251.965 265.97 253.772C265.844 253.991 264.099 256.345 265.338 254.84C264.959 255.305 264.579 255.743 264.149 256.181C263.922 256.427 261.823 258.179 263.593 256.81C262.404 257.714 261.165 258.507 259.875 259.219L259.294 259.52C258.332 259.986 258.56 259.903 259.951 259.246C259.825 259.438 258.813 259.712 258.585 259.794C257.624 260.15 256.613 260.506 255.626 260.752C254.792 260.971 253.957 261.163 253.097 261.327C255.247 260.944 252.44 261.327 252.162 261.354C250.695 261.436 249.253 261.354 247.786 261.299C245.08 261.245 249.481 261.792 246.825 261.19C245.687 260.944 244.549 260.697 243.436 260.341C238.606 258.836 234.888 256.181 233.623 250.679C233.547 250.378 233.193 247.203 233.37 249.557C233.32 248.735 233.269 247.914 233.269 247.093C233.269 245.998 233.446 244.903 233.421 243.808C233.396 242.714 232.789 246.902 233.421 244.219C233.649 243.234 233.851 242.248 234.129 241.263C234.357 240.496 234.584 239.757 234.837 238.991C234.989 238.526 235.191 238.06 235.343 237.568C235.975 235.679 234.332 239.922 235.141 238.06C236.051 235.953 236.962 233.872 237.948 231.819C240.275 227.084 242.905 222.485 245.636 217.996C248.57 213.179 251.656 208.443 254.817 203.817C256.385 201.518 257.978 199.219 259.572 196.947C260.002 196.317 260.457 195.715 260.887 195.086C259.42 197.139 260.937 195.031 261.165 194.703C262.126 193.361 263.087 192.047 264.048 190.734C274.645 176.254 285.748 162.157 297.306 148.553C300.771 144.474 301.023 138.069 297.306 134.045C293.79 130.241 287.366 129.94 283.902 134.045Z" fill="url(#paint2_linear_493_7310)"/>
<path d="M18.4743 236.008C24.9488 197.577 31.9796 159.201 40.7303 121.29C43.9675 107.248 47.4576 93.2882 51.4283 79.4926C53.0975 73.6623 54.8931 67.832 56.7899 62.0838C57.6245 59.5381 58.4844 57.0199 59.3949 54.5016C59.7996 53.352 60.2295 52.2297 60.6342 51.0801C60.8365 50.5326 61.0388 49.9852 61.2664 49.4377C61.7975 48.0691 62.0504 48.0144 61.2411 49.4925C63.2644 45.7972 64.5289 41.445 66.3752 37.6129C67.9179 34.4103 69.5618 31.2625 71.4333 28.2789C71.8633 27.5946 72.2932 26.9377 72.7485 26.2534C74.013 24.2826 71.2057 28.2242 72.7485 26.226C73.5578 25.1859 74.3671 24.1731 75.227 23.2151C75.6063 22.8045 76.011 22.3939 76.4156 21.9833C76.618 21.7917 76.8203 21.6275 76.9973 21.4359C78.1354 20.3136 76.3651 22.0928 75.9604 22.2844C76.795 21.8738 77.6043 21.1074 78.4136 20.5873C80.0322 19.5472 78.1354 20.861 77.5284 20.9431C77.9331 20.8884 78.4136 20.6421 78.793 20.5052C79.147 20.3683 79.6276 20.3957 79.9564 20.2588C79.8046 20.3136 76.972 20.3683 78.2113 20.5326C78.4136 20.5326 78.6918 20.5326 78.8941 20.5326C79.1218 20.5052 79.3494 20.5873 79.5517 20.5326C80.791 20.341 77.7055 20.1494 78.0343 20.2862C78.4895 20.4778 79.1723 20.6147 79.6782 20.7242C81.1703 21.0526 77.3008 19.3008 79.1723 20.5052C79.7034 20.861 80.2598 21.2169 80.791 21.5453C82.5866 22.7224 79.0459 19.7661 80.6139 21.4085C81.1956 22.0107 81.7773 22.5855 82.3337 23.2151C82.8395 23.7899 83.32 24.4194 83.8006 25.0216C84.8881 26.3629 82.966 23.7351 83.2947 24.2826C83.5476 24.7205 83.8764 25.1311 84.1546 25.5417C86.5067 29.1548 88.4541 33.0965 90.1991 37.0928C90.705 38.2151 91.1602 39.3647 91.6407 40.5144C92.1212 41.664 92.1465 41.9104 91.6407 40.487C91.9189 41.226 92.1971 41.9651 92.4753 42.7042C93.5122 45.5235 94.4986 48.3976 95.4343 51.2717C97.6094 58.0053 99.5062 64.821 101.251 71.6641C105.829 89.593 109.445 107.823 112.683 126.108C113.644 131.5 114.554 136.892 115.439 142.312C116.325 147.732 122.496 150.852 127.098 149.484C132.41 147.896 134.635 142.339 133.725 136.865C130.412 116.664 126.719 96.4908 122.066 76.5637C118.752 62.3849 115.035 48.2334 109.825 34.7388C103.856 19.2734 93.5122 -3.66458 74.5441 0.496015C61.8987 3.28799 53.9321 18.4523 48.7475 29.8392C38.5805 52.175 32.0302 76.4816 26.1122 100.46C16.9063 137.686 9.7237 175.515 3.12279 213.398C2.13645 219.119 1.15011 224.84 0.189056 230.533C-0.696123 235.789 1.52947 241.865 6.81526 243.152C11.4688 244.301 17.5386 241.619 18.4743 235.98V236.008Z" fill="url(#paint3_linear_493_7310)"/>
<defs>
<linearGradient id="paint0_linear_493_7310" x1="80.3357" y1="193.471" x2="168.752" y2="193.471" gradientUnits="userSpaceOnUse">
<stop stop-color="#EF9691"/>
<stop offset="1" stop-color="#F1AD92"/>
</linearGradient>
<linearGradient id="paint1_linear_493_7310" x1="165.009" y1="173.271" x2="227.023" y2="173.271" gradientUnits="userSpaceOnUse">
<stop stop-color="#F1AD92"/>
<stop offset="1" stop-color="#E8968F"/>
</linearGradient>
<linearGradient id="paint2_linear_493_7310" x1="221.888" y1="206.527" x2="291.995" y2="206.527" gradientUnits="userSpaceOnUse">
<stop stop-color="#EF9691"/>
<stop offset="1" stop-color="#F1AD92"/>
</linearGradient>
<linearGradient id="paint3_linear_493_7310" x1="7.44753" y1="121.728" x2="126.416" y2="121.728" gradientUnits="userSpaceOnUse">
<stop stop-color="#EF9691"/>
<stop offset="1" stop-color="#F1AD92"/>
</linearGradient>
</defs>
</svg>
