<svg width="42" height="42" viewBox="0 0 42 42" fill="none" xmlns="http://www.w3.org/2000/svg">
<mask id="mask0_131_127" style="mask-type:alpha" maskUnits="userSpaceOnUse" x="0" y="0" width="42" height="42">
<rect width="42" height="42" fill="#D9D9D9"/>
</mask>
<g mask="url(#mask0_131_127)">
<path d="M8.75 33.25H11.2L26.2938 18.1562L23.8438 15.7062L8.75 30.8V33.25ZM33.775 15.6188L26.3375 8.26875L28.7875 5.81875C29.4583 5.14792 30.2823 4.8125 31.2594 4.8125C32.2365 4.8125 33.0604 5.14792 33.7312 5.81875L36.1813 8.26875C36.8521 8.93958 37.2021 9.74896 37.2312 10.6969C37.2604 11.6448 36.9396 12.4542 36.2688 13.125L33.775 15.6188ZM31.2375 18.2L12.6875 36.75H5.25V29.3125L23.8 10.7625L31.2375 18.2Z" fill="#1C1B1F"/>
</g>
</svg>
