<svg width="56" height="32" viewBox="0 0 56 32" fill="none" xmlns="http://www.w3.org/2000/svg">
<path d="M1.70312 26.377C1.52734 26.377 1.40039 26.3281 1.32227 26.2305C1.24414 26.1328 1.18555 26.0059 1.14648 25.8496C1.12695 25.7129 1.12695 25.5566 1.14648 25.3809C1.16602 25.2246 1.17578 25.0977 1.17578 25L6.30273 3.26172C6.3418 3.08594 6.41992 2.90039 6.53711 2.70508C6.67383 2.49023 6.81055 2.33398 6.94727 2.23633C7.00586 2.41211 7.09375 2.59766 7.21094 2.79297C7.32812 2.96875 7.47461 3.125 7.65039 3.26172L15.7949 21.9238C15.8145 21.9434 15.8242 21.9922 15.8242 22.0703V22.2461C15.8242 22.4414 15.7852 22.6172 15.707 22.7734C15.6289 22.9102 15.4922 22.9785 15.2969 22.9785C15.043 22.9785 14.8672 22.8613 14.7695 22.627L12.7188 17.8809C12.7188 17.8613 12.5918 17.8418 12.3379 17.8223C12.1035 17.7832 11.918 17.7637 11.7812 17.7637C11.7031 17.7637 11.5859 17.7734 11.4297 17.793C11.293 17.793 11.1465 17.8027 10.9902 17.8223C10.834 17.8223 10.6875 17.832 10.5508 17.8516C10.4336 17.8711 10.3652 17.8809 10.3457 17.8809C9.89648 17.959 9.31055 18.0664 8.58789 18.2031C7.88477 18.3203 7.19141 18.457 6.50781 18.6133C5.82422 18.75 5.22852 18.877 4.7207 18.9941C4.23242 19.1113 3.96875 19.1895 3.92969 19.2285L2.20117 25.9961C2.18164 26.1328 2.12305 26.2305 2.02539 26.2891C1.92773 26.3477 1.82031 26.377 1.70312 26.377ZM6.94727 5.2832C6.92773 5.3418 6.89844 5.41992 6.85938 5.51758C6.83984 5.5957 6.81055 5.69336 6.77148 5.81055C6.73242 5.9082 6.70312 6.00586 6.68359 6.10352C6.66406 6.20117 6.64453 6.26953 6.625 6.30859C6.48828 6.81641 6.3418 7.43164 6.18555 8.1543L5.16016 12.7539C4.98438 13.5547 4.82812 14.2871 4.69141 14.9512C4.57422 15.6152 4.4668 16.1914 4.36914 16.6797C4.29102 17.168 4.25195 17.4805 4.25195 17.6172C4.52539 17.6172 4.90625 17.5977 5.39453 17.5586C5.88281 17.5195 6.40039 17.4609 6.94727 17.3828C7.51367 17.2852 8.08008 17.1875 8.64648 17.0898C9.23242 16.9922 9.75 16.875 10.1992 16.7383C10.668 16.6016 11.0488 16.4648 11.3418 16.3281C11.6348 16.1719 11.7812 16.0156 11.7812 15.8594C11.7812 15.8203 11.7715 15.7617 11.752 15.6836C11.752 15.5859 11.7422 15.5176 11.7227 15.4785L6.94727 5.2832Z" fill="black"/>
<path d="M22.3226 11.6699C22.4398 11.6699 22.5667 11.709 22.7034 11.7871C22.8597 11.8652 22.9573 11.9727 22.9964 12.1094L25.0472 22.2754C25.2816 22.627 25.4476 22.9102 25.5452 23.125C25.6624 23.3398 25.721 23.623 25.721 23.9746C25.721 24.1504 25.6917 24.375 25.6331 24.6484C25.5745 24.9023 25.4378 25.0293 25.223 25.0293H25.1058C25.0667 25.0293 25.0472 25.0195 25.0472 25C25.0081 24.9805 24.9495 24.9414 24.8714 24.8828L24.432 24.4434C24.3734 24.3848 24.3441 24.3457 24.3441 24.3262L22.3226 12.7539V11.6699ZM21.8245 5.10742C22.2542 5.10742 22.5667 5.16602 22.762 5.2832C22.9769 5.38086 23.0843 5.63477 23.0843 6.04492C23.0843 6.18164 23.0745 6.34766 23.055 6.54297C23.0355 6.73828 22.9183 6.86523 22.7034 6.92383C22.3128 6.76758 22.0687 6.51367 21.971 6.16211C21.8734 5.81055 21.8245 5.45898 21.8245 5.10742Z" fill="black"/>
<path d="M33.0983 24.3262C33.0788 23.8184 33.0299 23.0371 32.9518 21.9824C32.8737 20.9082 32.7858 19.707 32.6881 18.3789C32.61 17.0312 32.5221 15.625 32.4245 14.1602C32.3463 12.6758 32.2584 11.2598 32.1608 9.91211C32.0827 8.56445 31.9948 7.36328 31.8971 6.30859C31.819 5.23438 31.7702 4.44336 31.7506 3.93555V3.55469C31.7506 3.10547 31.9752 2.88086 32.4245 2.88086C32.4635 2.88086 32.5221 2.89062 32.6002 2.91016C32.6784 2.91016 32.737 2.91016 32.776 2.91016C32.8932 4.60938 33.0006 6.24023 33.0983 7.80273C33.1959 9.36523 33.2936 10.918 33.3913 12.4609C33.4889 14.0039 33.5963 15.5566 33.7135 17.1191C33.8307 18.6621 33.9674 20.2734 34.1237 21.9531C34.3385 22.168 34.4557 22.4219 34.4752 22.7148C34.4948 22.9883 34.5045 23.2715 34.5045 23.5645C34.5045 23.7012 34.4948 23.8574 34.4752 24.0332C34.4752 24.1895 34.4459 24.3457 34.3873 24.502C34.3288 24.6387 34.2311 24.7656 34.0944 24.8828C33.9772 24.9805 33.8209 25.0293 33.6256 25.0293C33.4498 25.0293 33.3229 24.9609 33.2448 24.8242C33.1862 24.6875 33.1373 24.5215 33.0983 24.3262Z" fill="black"/>
<path d="M52.5166 29.8047C52.5166 28.6914 52.5752 27.5879 52.6923 26.4941C52.8095 25.4199 52.8681 24.3359 52.8681 23.2422C52.8681 22.7734 52.7314 22.373 52.458 22.041C52.2041 21.6895 51.8916 21.3867 51.5205 21.1328C50.5048 20.3906 49.5185 19.6973 48.5615 19.0527C47.624 18.4082 46.706 17.7637 45.8076 17.1191C44.9091 16.4551 44.0205 15.7617 43.1416 15.0391C42.2822 14.3164 41.4423 13.5059 40.622 12.6074L41.2959 11.9336C41.4912 12.0898 41.7939 12.334 42.2041 12.666C42.6142 12.9785 43.0732 13.3398 43.581 13.75C44.0888 14.1406 44.6259 14.5605 45.1923 15.0098C45.7588 15.459 46.2959 15.8887 46.8037 16.2988C47.331 16.6895 47.7998 17.0508 48.2099 17.3828C48.6201 17.6953 48.9228 17.9199 49.1181 18.0566C49.333 18.2129 49.6162 18.4082 49.9677 18.6426C50.3388 18.8574 50.7002 19.0723 51.0517 19.2871C51.4228 19.502 51.7451 19.6973 52.0185 19.873C52.3115 20.0293 52.4775 20.1074 52.5166 20.1074H52.8681V19.7266C52.8877 19.4727 52.8974 19.0918 52.8974 18.584C52.917 18.0762 52.9365 17.5098 52.956 16.8848C52.9755 16.2402 52.9951 15.5566 53.0146 14.834C53.0537 14.1113 53.083 13.4277 53.1025 12.7832C53.1416 12.1387 53.1611 11.5625 53.1611 11.0547C53.1806 10.5469 53.1904 10.166 53.1904 9.91211C53.2685 9.69727 53.415 9.57031 53.6298 9.53125C53.8642 9.47266 54.0693 9.44336 54.2451 9.44336C54.2451 11.1426 54.2255 12.8516 54.1865 14.5703L54.0107 19.668C53.9716 21.3867 53.9326 23.1055 53.8935 24.8242C53.8545 26.5234 53.8545 28.2227 53.8935 29.9219C53.7959 30.0781 53.6787 30.2344 53.542 30.3906C53.4052 30.5664 53.2295 30.6543 53.0146 30.6543C52.8193 30.6543 52.6826 30.5566 52.6045 30.3613C52.5459 30.166 52.5166 29.9805 52.5166 29.8047Z" fill="black"/>
<path d="M1.70312 26.377C1.52734 26.377 1.40039 26.3281 1.32227 26.2305C1.24414 26.1328 1.18555 26.0059 1.14648 25.8496C1.12695 25.7129 1.12695 25.5566 1.14648 25.3809C1.16602 25.2246 1.17578 25.0977 1.17578 25L6.30273 3.26172C6.3418 3.08594 6.41992 2.90039 6.53711 2.70508C6.67383 2.49023 6.81055 2.33398 6.94727 2.23633C7.00586 2.41211 7.09375 2.59766 7.21094 2.79297C7.32812 2.96875 7.47461 3.125 7.65039 3.26172L15.7949 21.9238C15.8145 21.9434 15.8242 21.9922 15.8242 22.0703V22.2461C15.8242 22.4414 15.7852 22.6172 15.707 22.7734C15.6289 22.9102 15.4922 22.9785 15.2969 22.9785C15.043 22.9785 14.8672 22.8613 14.7695 22.627L12.7188 17.8809C12.7188 17.8613 12.5918 17.8418 12.3379 17.8223C12.1035 17.7832 11.918 17.7637 11.7812 17.7637C11.7031 17.7637 11.5859 17.7734 11.4297 17.793C11.293 17.793 11.1465 17.8027 10.9902 17.8223C10.834 17.8223 10.6875 17.832 10.5508 17.8516C10.4336 17.8711 10.3652 17.8809 10.3457 17.8809C9.89648 17.959 9.31055 18.0664 8.58789 18.2031C7.88477 18.3203 7.19141 18.457 6.50781 18.6133C5.82422 18.75 5.22852 18.877 4.7207 18.9941C4.23242 19.1113 3.96875 19.1895 3.92969 19.2285L2.20117 25.9961C2.18164 26.1328 2.12305 26.2305 2.02539 26.2891C1.92773 26.3477 1.82031 26.377 1.70312 26.377ZM6.94727 5.2832C6.92773 5.3418 6.89844 5.41992 6.85938 5.51758C6.83984 5.5957 6.81055 5.69336 6.77148 5.81055C6.73242 5.9082 6.70312 6.00586 6.68359 6.10352C6.66406 6.20117 6.64453 6.26953 6.625 6.30859C6.48828 6.81641 6.3418 7.43164 6.18555 8.1543L5.16016 12.7539C4.98438 13.5547 4.82812 14.2871 4.69141 14.9512C4.57422 15.6152 4.4668 16.1914 4.36914 16.6797C4.29102 17.168 4.25195 17.4805 4.25195 17.6172C4.52539 17.6172 4.90625 17.5977 5.39453 17.5586C5.88281 17.5195 6.40039 17.4609 6.94727 17.3828C7.51367 17.2852 8.08008 17.1875 8.64648 17.0898C9.23242 16.9922 9.75 16.875 10.1992 16.7383C10.668 16.6016 11.0488 16.4648 11.3418 16.3281C11.6348 16.1719 11.7812 16.0156 11.7812 15.8594C11.7812 15.8203 11.7715 15.7617 11.752 15.6836C11.752 15.5859 11.7422 15.5176 11.7227 15.4785L6.94727 5.2832Z" stroke="black" stroke-width="2"/>
<path d="M22.3226 11.6699C22.4398 11.6699 22.5667 11.709 22.7034 11.7871C22.8597 11.8652 22.9573 11.9727 22.9964 12.1094L25.0472 22.2754C25.2816 22.627 25.4476 22.9102 25.5452 23.125C25.6624 23.3398 25.721 23.623 25.721 23.9746C25.721 24.1504 25.6917 24.375 25.6331 24.6484C25.5745 24.9023 25.4378 25.0293 25.223 25.0293H25.1058C25.0667 25.0293 25.0472 25.0195 25.0472 25C25.0081 24.9805 24.9495 24.9414 24.8714 24.8828L24.432 24.4434C24.3734 24.3848 24.3441 24.3457 24.3441 24.3262L22.3226 12.7539V11.6699ZM21.8245 5.10742C22.2542 5.10742 22.5667 5.16602 22.762 5.2832C22.9769 5.38086 23.0843 5.63477 23.0843 6.04492C23.0843 6.18164 23.0745 6.34766 23.055 6.54297C23.0355 6.73828 22.9183 6.86523 22.7034 6.92383C22.3128 6.76758 22.0687 6.51367 21.971 6.16211C21.8734 5.81055 21.8245 5.45898 21.8245 5.10742Z" stroke="black" stroke-width="2"/>
<path d="M33.0983 24.3262C33.0788 23.8184 33.0299 23.0371 32.9518 21.9824C32.8737 20.9082 32.7858 19.707 32.6881 18.3789C32.61 17.0312 32.5221 15.625 32.4245 14.1602C32.3463 12.6758 32.2584 11.2598 32.1608 9.91211C32.0827 8.56445 31.9948 7.36328 31.8971 6.30859C31.819 5.23438 31.7702 4.44336 31.7506 3.93555V3.55469C31.7506 3.10547 31.9752 2.88086 32.4245 2.88086C32.4635 2.88086 32.5221 2.89062 32.6002 2.91016C32.6784 2.91016 32.737 2.91016 32.776 2.91016C32.8932 4.60938 33.0006 6.24023 33.0983 7.80273C33.1959 9.36523 33.2936 10.918 33.3913 12.4609C33.4889 14.0039 33.5963 15.5566 33.7135 17.1191C33.8307 18.6621 33.9674 20.2734 34.1237 21.9531C34.3385 22.168 34.4557 22.4219 34.4752 22.7148C34.4948 22.9883 34.5045 23.2715 34.5045 23.5645C34.5045 23.7012 34.4948 23.8574 34.4752 24.0332C34.4752 24.1895 34.4459 24.3457 34.3873 24.502C34.3288 24.6387 34.2311 24.7656 34.0944 24.8828C33.9772 24.9805 33.8209 25.0293 33.6256 25.0293C33.4498 25.0293 33.3229 24.9609 33.2448 24.8242C33.1862 24.6875 33.1373 24.5215 33.0983 24.3262Z" stroke="black" stroke-width="2"/>
<path d="M52.5166 29.8047C52.5166 28.6914 52.5752 27.5879 52.6923 26.4941C52.8095 25.4199 52.8681 24.3359 52.8681 23.2422C52.8681 22.7734 52.7314 22.373 52.458 22.041C52.2041 21.6895 51.8916 21.3867 51.5205 21.1328C50.5048 20.3906 49.5185 19.6973 48.5615 19.0527C47.624 18.4082 46.706 17.7637 45.8076 17.1191C44.9091 16.4551 44.0205 15.7617 43.1416 15.0391C42.2822 14.3164 41.4423 13.5059 40.622 12.6074L41.2959 11.9336C41.4912 12.0898 41.7939 12.334 42.2041 12.666C42.6142 12.9785 43.0732 13.3398 43.581 13.75C44.0888 14.1406 44.6259 14.5605 45.1923 15.0098C45.7588 15.459 46.2959 15.8887 46.8037 16.2988C47.331 16.6895 47.7998 17.0508 48.2099 17.3828C48.6201 17.6953 48.9228 17.9199 49.1181 18.0566C49.333 18.2129 49.6162 18.4082 49.9677 18.6426C50.3388 18.8574 50.7002 19.0723 51.0517 19.2871C51.4228 19.502 51.7451 19.6973 52.0185 19.873C52.3115 20.0293 52.4775 20.1074 52.5166 20.1074H52.8681V19.7266C52.8877 19.4727 52.8974 19.0918 52.8974 18.584C52.917 18.0762 52.9365 17.5098 52.956 16.8848C52.9755 16.2402 52.9951 15.5566 53.0146 14.834C53.0537 14.1113 53.083 13.4277 53.1025 12.7832C53.1416 12.1387 53.1611 11.5625 53.1611 11.0547C53.1806 10.5469 53.1904 10.166 53.1904 9.91211C53.2685 9.69727 53.415 9.57031 53.6298 9.53125C53.8642 9.47266 54.0693 9.44336 54.2451 9.44336C54.2451 11.1426 54.2255 12.8516 54.1865 14.5703L54.0107 19.668C53.9716 21.3867 53.9326 23.1055 53.8935 24.8242C53.8545 26.5234 53.8545 28.2227 53.8935 29.9219C53.7959 30.0781 53.6787 30.2344 53.542 30.3906C53.4052 30.5664 53.2295 30.6543 53.0146 30.6543C52.8193 30.6543 52.6826 30.5566 52.6045 30.3613C52.5459 30.166 52.5166 29.9805 52.5166 29.8047Z" stroke="black" stroke-width="2"/>
</svg>
