<svg width="90" height="54" viewBox="0 0 90 54" fill="none" xmlns="http://www.w3.org/2000/svg">
<path d="M3.17188 44.2949C2.87891 44.2949 2.66732 44.2135 2.53711 44.0508C2.4069 43.888 2.30924 43.6764 2.24414 43.416C2.21159 43.1882 2.21159 42.9277 2.24414 42.6348C2.27669 42.3743 2.29297 42.1628 2.29297 42L10.8379 5.76953C10.903 5.47656 11.0332 5.16732 11.2285 4.8418C11.4564 4.48372 11.6842 4.22331 11.9121 4.06055C12.0098 4.35352 12.1562 4.66276 12.3516 4.98828C12.5469 5.28125 12.791 5.54167 13.084 5.76953L26.6582 36.873C26.6908 36.9056 26.707 36.987 26.707 37.1172V37.4102C26.707 37.7357 26.6419 38.0286 26.5117 38.2891C26.3815 38.5169 26.1536 38.6309 25.8281 38.6309C25.4049 38.6309 25.112 38.4355 24.9492 38.0449L21.5312 30.1348C21.5312 30.1022 21.3197 30.0697 20.8965 30.0371C20.5059 29.972 20.1966 29.9395 19.9688 29.9395C19.8385 29.9395 19.6432 29.9557 19.3828 29.9883C19.1549 29.9883 18.9108 30.0046 18.6504 30.0371C18.39 30.0371 18.1458 30.0534 17.918 30.0859C17.7227 30.1185 17.6087 30.1348 17.5762 30.1348C16.8275 30.265 15.8509 30.444 14.6465 30.6719C13.4746 30.8672 12.319 31.0951 11.1797 31.3555C10.0404 31.5833 9.04753 31.7949 8.20117 31.9902C7.38737 32.1855 6.94792 32.3158 6.88281 32.3809L4.00195 43.6602C3.9694 43.888 3.87174 44.0508 3.70898 44.1484C3.54622 44.2461 3.36719 44.2949 3.17188 44.2949ZM11.9121 9.13867C11.8796 9.23633 11.8307 9.36654 11.7656 9.5293C11.7331 9.65951 11.6842 9.82227 11.6191 10.0176C11.554 10.1803 11.5052 10.3431 11.4727 10.5059C11.4401 10.6686 11.4076 10.7826 11.375 10.8477C11.1471 11.694 10.903 12.7194 10.6426 13.9238L8.93359 21.5898C8.64062 22.9245 8.38021 24.1452 8.15234 25.252C7.95703 26.3587 7.77799 27.319 7.61523 28.1328C7.48503 28.9466 7.41992 29.4674 7.41992 29.6953C7.87565 29.6953 8.51042 29.6628 9.32422 29.5977C10.138 29.5326 11.0007 29.4349 11.9121 29.3047C12.8561 29.1419 13.8001 28.9792 14.7441 28.8164C15.7207 28.6536 16.5833 28.4583 17.332 28.2305C18.1133 28.0026 18.748 27.7747 19.2363 27.5469C19.7246 27.2865 19.9688 27.026 19.9688 26.7656C19.9688 26.7005 19.9525 26.6029 19.9199 26.4727C19.9199 26.3099 19.9036 26.196 19.8711 26.1309L11.9121 9.13867Z" fill="#F8B195"/>
<path d="M36.4043 19.7832C36.5996 19.7832 36.8112 19.8483 37.0391 19.9785C37.2995 20.1087 37.4622 20.2878 37.5273 20.5156L40.9453 37.459C41.3359 38.0449 41.6126 38.5169 41.7754 38.875C41.9707 39.2331 42.0684 39.7051 42.0684 40.291C42.0684 40.584 42.0195 40.9583 41.9219 41.4141C41.8242 41.8372 41.5964 42.0488 41.2383 42.0488H41.043C40.9779 42.0488 40.9453 42.0326 40.9453 42C40.8802 41.9674 40.7826 41.9023 40.6523 41.8047L39.9199 41.0723C39.8223 40.9746 39.7734 40.9095 39.7734 40.877L36.4043 21.5898V19.7832ZM35.5742 8.8457C36.2904 8.8457 36.8112 8.94336 37.1367 9.13867C37.4948 9.30143 37.6738 9.72461 37.6738 10.4082C37.6738 10.6361 37.6576 10.9128 37.625 11.2383C37.5924 11.5638 37.3971 11.7754 37.0391 11.873C36.388 11.6126 35.9811 11.1895 35.8184 10.6035C35.6556 10.0176 35.5742 9.43164 35.5742 8.8457Z" fill="#F8B195"/>
<path d="M53.2305 40.877C53.1979 40.0306 53.1165 38.7285 52.9863 36.9707C52.8561 35.1803 52.7096 33.1784 52.5469 30.9648C52.4167 28.7188 52.2702 26.375 52.1074 23.9336C51.9772 21.4596 51.8307 19.0996 51.668 16.8535C51.5378 14.6074 51.3913 12.6055 51.2285 10.8477C51.0983 9.05729 51.0169 7.73893 50.9844 6.89258V6.25781C50.9844 5.50911 51.3587 5.13477 52.1074 5.13477C52.1725 5.13477 52.2702 5.15104 52.4004 5.18359C52.5306 5.18359 52.6283 5.18359 52.6934 5.18359C52.8887 8.01562 53.0677 10.7337 53.2305 13.3379C53.3932 15.9421 53.556 18.5299 53.7188 21.1016C53.8815 23.6732 54.0605 26.2611 54.2559 28.8652C54.4512 31.4368 54.679 34.1224 54.9395 36.9219C55.2975 37.2799 55.4928 37.7031 55.5254 38.1914C55.5579 38.6471 55.5742 39.1191 55.5742 39.6074C55.5742 39.8353 55.5579 40.0957 55.5254 40.3887C55.5254 40.6491 55.4766 40.9095 55.3789 41.1699C55.2812 41.3978 55.1185 41.6094 54.8906 41.8047C54.6953 41.9674 54.4349 42.0488 54.1094 42.0488C53.8164 42.0488 53.6048 41.9349 53.4746 41.707C53.377 41.4792 53.2956 41.2025 53.2305 40.877Z" fill="#F8B195"/>
<path d="M84.4609 50.0078C84.4609 48.1523 84.5586 46.3132 84.7539 44.4902C84.9492 42.6999 85.0469 40.8932 85.0469 39.0703C85.0469 38.2891 84.819 37.6217 84.3633 37.0684C83.9401 36.4824 83.4193 35.9779 82.8008 35.5547C81.1081 34.3177 79.4642 33.1621 77.8691 32.0879C76.3066 31.0137 74.7767 29.9395 73.2793 28.8652C71.7819 27.7585 70.3008 26.6029 68.8359 25.3984C67.4036 24.194 66.0039 22.8431 64.6367 21.3457L65.7598 20.2227C66.0853 20.4831 66.5898 20.89 67.2734 21.4434C67.957 21.9642 68.722 22.5664 69.5684 23.25C70.4147 23.901 71.3099 24.6009 72.2539 25.3496C73.1979 26.0983 74.0931 26.8145 74.9395 27.498C75.8184 28.1491 76.5996 28.7513 77.2832 29.3047C77.9668 29.8255 78.4714 30.1999 78.7969 30.4277C79.1549 30.6882 79.627 31.0137 80.2129 31.4043C80.8314 31.7624 81.4336 32.1204 82.0195 32.4785C82.638 32.8366 83.1751 33.1621 83.6309 33.4551C84.1191 33.7155 84.3958 33.8457 84.4609 33.8457H85.0469V33.2109C85.0794 32.7878 85.0957 32.153 85.0957 31.3066C85.1283 30.4603 85.1608 29.5163 85.1934 28.4746C85.2259 27.4004 85.2585 26.2611 85.291 25.0566C85.3561 23.8522 85.4049 22.7129 85.4375 21.6387C85.5026 20.5645 85.5352 19.6042 85.5352 18.7578C85.5677 17.9115 85.584 17.2767 85.584 16.8535C85.7142 16.4954 85.9583 16.2839 86.3164 16.2188C86.707 16.1211 87.0488 16.0723 87.3418 16.0723C87.3418 18.9043 87.3092 21.7526 87.2441 24.6172L86.9512 33.1133C86.8861 35.9779 86.821 38.8424 86.7559 41.707C86.6908 44.5391 86.6908 47.3711 86.7559 50.2031C86.5931 50.4635 86.3978 50.724 86.1699 50.9844C85.9421 51.2773 85.6491 51.4238 85.291 51.4238C84.9655 51.4238 84.7376 51.2611 84.6074 50.9355C84.5098 50.61 84.4609 50.3008 84.4609 50.0078Z" fill="#F8B195"/>
<path d="M3.17188 44.2949C2.87891 44.2949 2.66732 44.2135 2.53711 44.0508C2.4069 43.888 2.30924 43.6764 2.24414 43.416C2.21159 43.1882 2.21159 42.9277 2.24414 42.6348C2.27669 42.3743 2.29297 42.1628 2.29297 42L10.8379 5.76953C10.903 5.47656 11.0332 5.16732 11.2285 4.8418C11.4564 4.48372 11.6842 4.22331 11.9121 4.06055C12.0098 4.35352 12.1562 4.66276 12.3516 4.98828C12.5469 5.28125 12.791 5.54167 13.084 5.76953L26.6582 36.873C26.6908 36.9056 26.707 36.987 26.707 37.1172V37.4102C26.707 37.7357 26.6419 38.0286 26.5117 38.2891C26.3815 38.5169 26.1536 38.6309 25.8281 38.6309C25.4049 38.6309 25.112 38.4355 24.9492 38.0449L21.5312 30.1348C21.5312 30.1022 21.3197 30.0697 20.8965 30.0371C20.5059 29.972 20.1966 29.9395 19.9688 29.9395C19.8385 29.9395 19.6432 29.9557 19.3828 29.9883C19.1549 29.9883 18.9108 30.0046 18.6504 30.0371C18.39 30.0371 18.1458 30.0534 17.918 30.0859C17.7227 30.1185 17.6087 30.1348 17.5762 30.1348C16.8275 30.265 15.8509 30.444 14.6465 30.6719C13.4746 30.8672 12.319 31.0951 11.1797 31.3555C10.0404 31.5833 9.04753 31.7949 8.20117 31.9902C7.38737 32.1855 6.94792 32.3158 6.88281 32.3809L4.00195 43.6602C3.9694 43.888 3.87174 44.0508 3.70898 44.1484C3.54622 44.2461 3.36719 44.2949 3.17188 44.2949ZM11.9121 9.13867C11.8796 9.23633 11.8307 9.36654 11.7656 9.5293C11.7331 9.65951 11.6842 9.82227 11.6191 10.0176C11.554 10.1803 11.5052 10.3431 11.4727 10.5059C11.4401 10.6686 11.4076 10.7826 11.375 10.8477C11.1471 11.694 10.903 12.7194 10.6426 13.9238L8.93359 21.5898C8.64062 22.9245 8.38021 24.1452 8.15234 25.252C7.95703 26.3587 7.77799 27.319 7.61523 28.1328C7.48503 28.9466 7.41992 29.4674 7.41992 29.6953C7.87565 29.6953 8.51042 29.6628 9.32422 29.5977C10.138 29.5326 11.0007 29.4349 11.9121 29.3047C12.8561 29.1419 13.8001 28.9792 14.7441 28.8164C15.7207 28.6536 16.5833 28.4583 17.332 28.2305C18.1133 28.0026 18.748 27.7747 19.2363 27.5469C19.7246 27.2865 19.9688 27.026 19.9688 26.7656C19.9688 26.7005 19.9525 26.6029 19.9199 26.4727C19.9199 26.3099 19.9036 26.196 19.8711 26.1309L11.9121 9.13867Z" stroke="#F8B195" stroke-width="4"/>
<path d="M36.4043 19.7832C36.5996 19.7832 36.8112 19.8483 37.0391 19.9785C37.2995 20.1087 37.4622 20.2878 37.5273 20.5156L40.9453 37.459C41.3359 38.0449 41.6126 38.5169 41.7754 38.875C41.9707 39.2331 42.0684 39.7051 42.0684 40.291C42.0684 40.584 42.0195 40.9583 41.9219 41.4141C41.8242 41.8372 41.5964 42.0488 41.2383 42.0488H41.043C40.9779 42.0488 40.9453 42.0326 40.9453 42C40.8802 41.9674 40.7826 41.9023 40.6523 41.8047L39.9199 41.0723C39.8223 40.9746 39.7734 40.9095 39.7734 40.877L36.4043 21.5898V19.7832ZM35.5742 8.8457C36.2904 8.8457 36.8112 8.94336 37.1367 9.13867C37.4948 9.30143 37.6738 9.72461 37.6738 10.4082C37.6738 10.6361 37.6576 10.9128 37.625 11.2383C37.5924 11.5638 37.3971 11.7754 37.0391 11.873C36.388 11.6126 35.9811 11.1895 35.8184 10.6035C35.6556 10.0176 35.5742 9.43164 35.5742 8.8457Z" stroke="#F8B195" stroke-width="4"/>
<path d="M53.2305 40.877C53.1979 40.0306 53.1165 38.7285 52.9863 36.9707C52.8561 35.1803 52.7096 33.1784 52.5469 30.9648C52.4167 28.7188 52.2702 26.375 52.1074 23.9336C51.9772 21.4596 51.8307 19.0996 51.668 16.8535C51.5378 14.6074 51.3913 12.6055 51.2285 10.8477C51.0983 9.05729 51.0169 7.73893 50.9844 6.89258V6.25781C50.9844 5.50911 51.3587 5.13477 52.1074 5.13477C52.1725 5.13477 52.2702 5.15104 52.4004 5.18359C52.5306 5.18359 52.6283 5.18359 52.6934 5.18359C52.8887 8.01562 53.0677 10.7337 53.2305 13.3379C53.3932 15.9421 53.556 18.5299 53.7188 21.1016C53.8815 23.6732 54.0605 26.2611 54.2559 28.8652C54.4512 31.4368 54.679 34.1224 54.9395 36.9219C55.2975 37.2799 55.4928 37.7031 55.5254 38.1914C55.5579 38.6471 55.5742 39.1191 55.5742 39.6074C55.5742 39.8353 55.5579 40.0957 55.5254 40.3887C55.5254 40.6491 55.4766 40.9095 55.3789 41.1699C55.2812 41.3978 55.1185 41.6094 54.8906 41.8047C54.6953 41.9674 54.4349 42.0488 54.1094 42.0488C53.8164 42.0488 53.6048 41.9349 53.4746 41.707C53.377 41.4792 53.2956 41.2025 53.2305 40.877Z" stroke="#F8B195" stroke-width="4"/>
<path d="M84.4609 50.0078C84.4609 48.1523 84.5586 46.3132 84.7539 44.4902C84.9492 42.6999 85.0469 40.8932 85.0469 39.0703C85.0469 38.2891 84.819 37.6217 84.3633 37.0684C83.9401 36.4824 83.4193 35.9779 82.8008 35.5547C81.1081 34.3177 79.4642 33.1621 77.8691 32.0879C76.3066 31.0137 74.7767 29.9395 73.2793 28.8652C71.7819 27.7585 70.3008 26.6029 68.8359 25.3984C67.4036 24.194 66.0039 22.8431 64.6367 21.3457L65.7598 20.2227C66.0853 20.4831 66.5898 20.89 67.2734 21.4434C67.957 21.9642 68.722 22.5664 69.5684 23.25C70.4147 23.901 71.3099 24.6009 72.2539 25.3496C73.1979 26.0983 74.0931 26.8145 74.9395 27.498C75.8184 28.1491 76.5996 28.7513 77.2832 29.3047C77.9668 29.8255 78.4714 30.1999 78.7969 30.4277C79.1549 30.6882 79.627 31.0137 80.2129 31.4043C80.8314 31.7624 81.4336 32.1204 82.0195 32.4785C82.638 32.8366 83.1751 33.1621 83.6309 33.4551C84.1191 33.7155 84.3958 33.8457 84.4609 33.8457H85.0469V33.2109C85.0794 32.7878 85.0957 32.153 85.0957 31.3066C85.1283 30.4603 85.1608 29.5163 85.1934 28.4746C85.2259 27.4004 85.2585 26.2611 85.291 25.0566C85.3561 23.8522 85.4049 22.7129 85.4375 21.6387C85.5026 20.5645 85.5352 19.6042 85.5352 18.7578C85.5677 17.9115 85.584 17.2767 85.584 16.8535C85.7142 16.4954 85.9583 16.2839 86.3164 16.2188C86.707 16.1211 87.0488 16.0723 87.3418 16.0723C87.3418 18.9043 87.3092 21.7526 87.2441 24.6172L86.9512 33.1133C86.8861 35.9779 86.821 38.8424 86.7559 41.707C86.6908 44.5391 86.6908 47.3711 86.7559 50.2031C86.5931 50.4635 86.3978 50.724 86.1699 50.9844C85.9421 51.2773 85.6491 51.4238 85.291 51.4238C84.9655 51.4238 84.7376 51.2611 84.6074 50.9355C84.5098 50.61 84.4609 50.3008 84.4609 50.0078Z" stroke="#F8B195" stroke-width="4"/>
</svg>
