<svg width="30" height="21" viewBox="0 0 30 21" fill="none" xmlns="http://www.w3.org/2000/svg">
<g clip-path="url(#clip0_230_37)">
<path d="M15.0002 3.28125C11.6043 3.28125 8.81266 4.49531 6.67204 6.05801C4.66683 7.52637 3.28141 9.26953 2.57308 10.5C3.28141 11.7305 4.66683 13.4736 6.66683 14.942C8.81266 16.5047 11.6043 17.7188 15.0002 17.7188C18.396 17.7188 21.1877 16.5047 23.3283 14.942C25.3335 13.4736 26.7189 11.7305 27.4272 10.5C26.7189 9.26953 25.3335 7.52637 23.3335 6.05801C21.1877 4.49531 18.396 3.28125 15.0002 3.28125ZM4.96891 4.61836C7.42204 2.82187 10.7918 1.3125 15.0002 1.3125C19.2085 1.3125 22.5783 2.82187 25.0314 4.61836C27.4689 6.40254 29.0991 8.53125 29.8752 9.99551C30.047 10.3195 30.047 10.6805 29.8752 11.0045C29.0991 12.4688 27.4689 14.6016 25.0314 16.3816C22.5783 18.1781 19.2085 19.6875 15.0002 19.6875C10.7918 19.6875 7.42204 18.1781 4.96891 16.3816C2.53141 14.6016 0.901204 12.4688 0.130371 11.0045C-0.0415039 10.6805 -0.0415039 10.3195 0.130371 9.99551C0.901204 8.53125 2.53141 6.39844 4.96891 4.61836Z" fill="#9A9A9A"/>
<circle cx="15" cy="10" r="5" fill="#9A9A9A"/>
</g>
<defs>
<clipPath id="clip0_230_37">
<rect width="30" height="21" fill="white"/>
</clipPath>
</defs>
</svg>
