<svg width="27" height="29" viewBox="0 0 27 29" fill="none" xmlns="http://www.w3.org/2000/svg">
<mask id="path-1-inside-1_138_91" fill="white">
<path fill-rule="evenodd" clip-rule="evenodd" d="M6.59375 11.625H6.46875H5.875C4.28926 11.625 3 12.9143 3 14.5V23.125C3 24.7107 4.28926 26 5.875 26H20.25C21.8357 26 23.125 24.7107 23.125 23.125V14.5C23.125 12.9143 21.8357 11.625 20.25 11.625H19.6562H19.5312V9.46875C19.5312 5.89746 16.6338 3 13.0625 3C9.49121 3 6.59375 5.89746 6.59375 9.46875V11.625ZM0 14.5C0 12.0633 1.48656 9.97112 3.60152 9.08172C3.80465 4.03292 7.96399 0 13.0625 0C18.161 0 22.3203 4.03292 22.5235 9.08172C24.6384 9.97112 26.125 12.0633 26.125 14.5V23.125C26.125 26.3676 23.4926 29 20.25 29H5.875C2.6324 29 0 26.3676 0 23.125V14.5ZM9.59375 11.625H12.4688H13.6562H16.5312H16.6562V9.46875C16.6562 9.17813 16.6218 8.89559 16.5567 8.625C16.1774 7.04688 14.7574 5.875 13.0625 5.875C11.3676 5.875 9.94761 7.04688 9.56825 8.625C9.5032 8.89559 9.46875 9.17813 9.46875 9.46875V11.625H9.59375ZM18 16.5C18.279 16.221 18.0697 15.4881 17.7907 15.2091H17.793C17.514 14.9301 16.779 14.7209 16.5 14.9999L11.5 20L9.49997 18C9.22098 17.721 8.4882 17.7869 8.20921 18.0659C7.93022 18.3449 7.93031 19.221 8.20929 19.5L10.4999 22C10.9999 22.5 11.4999 23 12.4999 22L18 16.5Z"/>
</mask>
<path fill-rule="evenodd" clip-rule="evenodd" d="M6.59375 11.625H6.46875H5.875C4.28926 11.625 3 12.9143 3 14.5V23.125C3 24.7107 4.28926 26 5.875 26H20.25C21.8357 26 23.125 24.7107 23.125 23.125V14.5C23.125 12.9143 21.8357 11.625 20.25 11.625H19.6562H19.5312V9.46875C19.5312 5.89746 16.6338 3 13.0625 3C9.49121 3 6.59375 5.89746 6.59375 9.46875V11.625ZM0 14.5C0 12.0633 1.48656 9.97112 3.60152 9.08172C3.80465 4.03292 7.96399 0 13.0625 0C18.161 0 22.3203 4.03292 22.5235 9.08172C24.6384 9.97112 26.125 12.0633 26.125 14.5V23.125C26.125 26.3676 23.4926 29 20.25 29H5.875C2.6324 29 0 26.3676 0 23.125V14.5ZM9.59375 11.625H12.4688H13.6562H16.5312H16.6562V9.46875C16.6562 9.17813 16.6218 8.89559 16.5567 8.625C16.1774 7.04688 14.7574 5.875 13.0625 5.875C11.3676 5.875 9.94761 7.04688 9.56825 8.625C9.5032 8.89559 9.46875 9.17813 9.46875 9.46875V11.625H9.59375ZM18 16.5C18.279 16.221 18.0697 15.4881 17.7907 15.2091H17.793C17.514 14.9301 16.779 14.7209 16.5 14.9999L11.5 20L9.49997 18C9.22098 17.721 8.4882 17.7869 8.20921 18.0659C7.93022 18.3449 7.93031 19.221 8.20929 19.5L10.4999 22C10.9999 22.5 11.4999 23 12.4999 22L18 16.5Z" fill="#9A9A9A"/>
<path d="M6.59375 11.625V13.625H8.59375V11.625H6.59375ZM19.5312 11.625H17.5312V13.625H19.5312V11.625ZM3.60152 9.08172L4.37681 10.9253L5.54879 10.4325L5.59991 9.16212L3.60152 9.08172ZM22.5235 9.08172L20.5251 9.16213L20.5762 10.4325L21.7482 10.9253L22.5235 9.08172ZM16.6562 11.625V13.625H18.6562V11.625H16.6562ZM16.5567 8.625L18.5014 8.15755L18.5014 8.15754L16.5567 8.625ZM9.56825 8.625L7.62365 8.15754H7.62365L9.56825 8.625ZM9.46875 11.625H7.46875V13.625H9.46875V11.625ZM17.7907 15.2091V13.2091H12.9623L16.3765 16.6233L17.7907 15.2091ZM18 16.5L19.4142 17.9142L19.4142 17.9142L18 16.5ZM17.793 15.2091V17.2091H22.6214L19.2072 13.7949L17.793 15.2091ZM16.5 14.9999L15.0858 13.5857L15.0857 13.5857L16.5 14.9999ZM11.5 20L10.0858 21.4142L11.5 22.8284L12.9142 21.4142L11.5 20ZM9.49997 18L10.9142 16.5858L10.9142 16.5858L9.49997 18ZM8.20921 18.0659L6.795 16.6517L6.79499 16.6517L8.20921 18.0659ZM8.20929 19.5L9.68391 18.1489L9.65439 18.1167L9.6235 18.0858L8.20929 19.5ZM10.4999 22L9.0253 23.3511L9.05482 23.3833L9.0857 23.4142L10.4999 22ZM12.4999 22L11.0857 20.5858L11.0857 20.5858L12.4999 22ZM6.46875 13.625H6.59375V9.625H6.46875V13.625ZM5.875 13.625H6.46875V9.625H5.875V13.625ZM5 14.5C5 14.0188 5.39383 13.625 5.875 13.625V9.625C3.18469 9.625 1 11.8097 1 14.5H5ZM5 23.125V14.5H1V23.125H5ZM5.875 24C5.39383 24 5 23.6062 5 23.125H1C1 25.8153 3.18469 28 5.875 28V24ZM20.25 24H5.875V28H20.25V24ZM21.125 23.125C21.125 23.6062 20.7312 24 20.25 24V28C22.9403 28 25.125 25.8153 25.125 23.125H21.125ZM21.125 14.5V23.125H25.125V14.5H21.125ZM20.25 13.625C20.7312 13.625 21.125 14.0188 21.125 14.5H25.125C25.125 11.8097 22.9403 9.625 20.25 9.625V13.625ZM19.6562 13.625H20.25V9.625H19.6562V13.625ZM19.5312 13.625H19.6562V9.625H19.5312V13.625ZM17.5312 9.46875V11.625H21.5312V9.46875H17.5312ZM13.0625 5C15.5292 5 17.5312 7.00203 17.5312 9.46875H21.5312C21.5312 4.79289 17.7384 1 13.0625 1V5ZM8.59375 9.46875C8.59375 7.00203 10.5958 5 13.0625 5V1C8.38664 1 4.59375 4.79289 4.59375 9.46875H8.59375ZM8.59375 11.625V9.46875H4.59375V11.625H8.59375ZM2.82623 7.2381C-0.00380354 8.42821 -2 11.2294 -2 14.5H2C2 12.8972 2.97693 11.514 4.37681 10.9253L2.82623 7.2381ZM13.0625 -2C6.88629 -2 1.84924 2.88451 1.60314 9.00132L5.59991 9.16212C5.76007 5.18133 9.04169 2 13.0625 2V-2ZM24.5219 9.00132C24.2758 2.88451 19.2387 -2 13.0625 -2V2C17.0833 2 20.3649 5.18133 20.5251 9.16213L24.5219 9.00132ZM28.125 14.5C28.125 11.2294 26.1288 8.42821 23.2988 7.23811L21.7482 10.9253C23.1481 11.514 24.125 12.8972 24.125 14.5H28.125ZM28.125 23.125V14.5H24.125V23.125H28.125ZM20.25 31C24.5972 31 28.125 27.4722 28.125 23.125H24.125C24.125 25.263 22.388 27 20.25 27V31ZM5.875 31H20.25V27H5.875V31ZM-2 23.125C-2 27.4722 1.52783 31 5.875 31V27C3.73697 27 2 25.263 2 23.125H-2ZM-2 14.5V23.125H2V14.5H-2ZM12.4688 9.625H9.59375V13.625H12.4688V9.625ZM13.6562 9.625H12.4688V13.625H13.6562V9.625ZM16.5312 9.625H13.6562V13.625H16.5312V9.625ZM16.6562 9.625H16.5312V13.625H16.6562V9.625ZM14.6562 9.46875V11.625H18.6562V9.46875H14.6562ZM14.6121 9.09245C14.6407 9.21106 14.6562 9.33672 14.6562 9.46875H18.6562C18.6562 9.01954 18.6029 8.58012 18.5014 8.15755L14.6121 9.09245ZM13.0625 7.875C13.8122 7.875 14.444 8.39295 14.6121 9.09246L18.5014 8.15754C17.9108 5.70081 15.7026 3.875 13.0625 3.875V7.875ZM11.5129 9.09246C11.681 8.39295 12.3128 7.875 13.0625 7.875V3.875C10.4224 3.875 8.21422 5.70081 7.62365 8.15754L11.5129 9.09246ZM11.4688 9.46875C11.4688 9.33672 11.4843 9.21106 11.5129 9.09246L7.62365 8.15754C7.52206 8.58012 7.46875 9.01954 7.46875 9.46875H11.4688ZM11.4688 11.625V9.46875H7.46875V11.625H11.4688ZM9.59375 9.625H9.46875V13.625H9.59375V9.625ZM16.3765 16.6233C16.2437 16.4904 16.1915 16.3841 16.181 16.3623C16.1645 16.3283 16.1539 16.2978 16.146 16.2595C16.1398 16.2296 16.1193 16.1205 16.1424 15.9506C16.1647 15.7866 16.2502 15.4214 16.5858 15.0858L19.4142 17.9142C19.8892 17.4392 20.0532 16.8777 20.106 16.4891C20.1596 16.0945 20.1217 15.7325 20.0632 15.4496C19.9577 14.9396 19.6989 14.2888 19.2049 13.7949L16.3765 16.6233ZM17.793 13.2091H17.7907V17.2091H17.793V13.2091ZM17.9142 16.4141C17.578 16.7503 17.2123 16.8354 17.0494 16.8575C16.8802 16.8805 16.7718 16.8601 16.7425 16.854C16.7047 16.8463 16.6746 16.8359 16.6408 16.8195C16.6193 16.8091 16.5123 16.7569 16.3787 16.6233L19.2072 13.7949C18.7121 13.2998 18.0598 13.0415 17.5505 12.9365C17.2676 12.8782 16.9057 12.8404 16.5115 12.8938C16.1236 12.9465 15.5614 13.1101 15.0858 13.5857L17.9142 16.4141ZM12.9142 21.4142L17.9142 16.4141L15.0857 13.5857L10.0857 18.5858L12.9142 21.4142ZM8.08576 19.4142L10.0858 21.4142L12.9142 18.5858L10.9142 16.5858L8.08576 19.4142ZM9.62342 19.4801C9.42681 19.6767 9.24339 19.7525 9.17607 19.7771C9.09475 19.8068 9.03219 19.8164 8.98459 19.8195C8.93946 19.8224 8.85073 19.8233 8.72465 19.7911C8.6108 19.762 8.34592 19.6744 8.08576 19.4142L10.9142 16.5858C10.168 15.8396 9.19235 15.7975 8.72459 15.8279C8.22055 15.8608 7.41329 16.0334 6.795 16.6517L9.62342 19.4801ZM9.6235 18.0858C9.89484 18.3571 9.96757 18.6196 9.97956 18.6628C10.0006 18.7388 10 18.7777 10 18.7828C10 18.7879 10.0007 18.8268 9.97956 18.9029C9.96757 18.9461 9.89484 19.2087 9.62343 19.4801L6.79499 16.6517C6.38409 17.0626 6.20675 17.5393 6.12502 17.834C6.0342 18.1615 5.99999 18.4892 6.00001 18.7831C6.00003 19.077 6.03429 19.4046 6.12514 19.7321C6.20689 20.0268 6.38425 20.5034 6.79508 20.9142L9.6235 18.0858ZM11.9745 20.6489L9.68391 18.1489L6.73468 20.8511L9.0253 23.3511L11.9745 20.6489ZM11.0857 20.5858C10.9409 20.7306 10.9228 20.7089 11.0304 20.6616C11.0912 20.6348 11.1875 20.602 11.3142 20.5864C11.4433 20.5704 11.5765 20.5757 11.7046 20.6013C11.9543 20.6513 12.0929 20.7592 12.0976 20.7628C12.1027 20.7667 12.0915 20.7585 12.057 20.7262C12.0206 20.692 11.9806 20.6523 11.9141 20.5858L9.0857 23.4142C9.21358 23.5421 9.89867 24.3194 10.9202 24.5237C12.2048 24.7806 13.2274 24.101 13.9141 23.4142L11.0857 20.5858ZM16.5858 15.0858L11.0857 20.5858L13.9141 23.4142L19.4142 17.9142L16.5858 15.0858Z" fill="#9A9A9A" mask="url(#path-1-inside-1_138_91)"/>
</svg>
