<svg width="500" height="636" viewBox="0 0 500 636" fill="none" xmlns="http://www.w3.org/2000/svg">
<path d="M302.848 29.811C272.365 33.485 248.474 52.3405 242.325 75.1067C254.73 68.338 269.078 63.6616 284.668 61.7826L318.796 57.6692C322.209 57.2579 325.267 59.1229 325.591 61.8137C325.915 64.5045 323.388 67.0426 319.975 67.4539L313.77 68.2018L285.847 71.5673C279.41 72.3432 273.236 73.6767 267.354 75.4714C257.527 78.4861 248.567 82.8232 240.795 88.196C219.689 102.745 207.271 124.747 210.039 147.71L210.629 152.603C211.119 156.669 215.663 159.441 220.821 158.819C225.979 158.198 229.734 154.426 229.244 150.359L228.654 145.467C226.86 130.576 233.273 116.215 244.979 105.281C255.44 127.441 284.136 141.261 315.82 137.442L316.208 137.396C367.413 131.007 404.073 86.1987 398.158 37.1225C396.588 24.0966 392.187 12.0635 385.567 1.53852C384.304 -0.449768 380.399 0.114065 379.281 2.26518C373.287 13.9071 359.741 22.9538 343.181 24.9497L302.848 29.811Z" fill="url(#paint0_linear_0_1)"/>
<g clip-path="url(#clip0_0_1)">
<path d="M50.4883 424.184L81.4453 430.336C89.1602 431.898 97.0703 429.457 102.637 423.891L117.676 408.852C129.004 397.523 148.047 400.648 155.176 414.906L164.258 432.973C168.945 442.348 178.516 448.305 189.062 448.305C203.906 448.305 214.551 434.047 210.254 419.789L204.395 400.355C199.902 385.316 211.133 370.18 226.855 370.18H229.102C242.188 370.18 254.395 363.637 261.621 352.797L272.07 337.074C277.539 328.773 277.246 317.934 271.289 310.023L255.566 289.027C245.508 275.648 252.344 256.312 268.652 252.211L285.254 248.012C292.578 246.156 298.535 240.98 301.367 233.949L317.383 194.008C296.289 186.879 273.633 182.875 250 182.875C137.793 182.875 46.875 273.793 46.875 386C46.875 399.086 48.1445 411.879 50.4883 424.184ZM448.633 428.676C445.703 428.383 442.773 428.578 439.844 429.457L424.414 433.754C417.871 435.609 410.938 432.875 407.324 427.211L405.371 424.184C399.512 415.004 389.355 409.438 378.418 409.438C367.48 409.438 357.324 415.004 351.465 424.184L345.508 433.461C344.141 435.609 342.188 437.465 339.941 438.637L304.688 458.363C287.012 468.227 279.785 490.004 288.086 508.461L293.457 520.57C301.855 539.32 323.438 548.402 342.773 541.176L345.312 540.199C355.078 536.586 366.113 538.051 374.512 544.203L375.977 545.277C412.305 516.469 438.574 475.551 448.633 428.578V428.676ZM0 386C0 319.696 26.3392 256.107 73.2233 209.223C120.107 162.339 183.696 136 250 136C316.304 136 379.893 162.339 426.777 209.223C473.661 256.107 500 319.696 500 386C500 452.304 473.661 515.893 426.777 562.777C379.893 609.661 316.304 636 250 636C183.696 636 120.107 609.661 73.2233 562.777C26.3392 515.893 0 452.304 0 386ZM141.113 475.941C139.062 484.34 144.141 492.836 152.441 494.887L183.691 502.699C192.09 504.75 200.586 499.672 202.637 491.371C204.688 483.07 199.609 474.477 191.309 472.426L160.059 464.613C151.66 462.562 143.164 467.641 141.113 475.941ZM230.957 456.41C228.906 464.809 233.984 473.305 242.285 475.355C250.586 477.406 259.18 472.328 261.23 464.027L269.043 432.777C271.094 424.379 266.016 415.883 257.715 413.832C249.414 411.781 240.82 416.859 238.77 425.16L230.957 456.41ZM335.156 247.035C327.441 243.129 318.066 246.352 314.16 254.066L298.535 285.316C294.629 293.031 297.852 302.406 305.566 306.312C313.281 310.219 322.656 306.996 326.562 299.281L342.188 268.031C346.094 260.316 342.871 250.941 335.156 247.035Z" fill="url(#paint1_linear_0_1)"/>
</g>
<defs>
<linearGradient id="paint0_linear_0_1" x1="294.281" y1="10.9665" x2="310.795" y2="147.975" gradientUnits="userSpaceOnUse">
<stop stop-color="#34DE63"/>
<stop offset="1" stop-color="#34DE63"/>
</linearGradient>
<linearGradient id="paint1_linear_0_1" x1="250" y1="136" x2="250" y2="636" gradientUnits="userSpaceOnUse">
<stop stop-color="#34DE63"/>
<stop offset="1" stop-color="#1353F9" stop-opacity="0.59"/>
</linearGradient>
<clipPath id="clip0_0_1">
<rect width="500" height="500" fill="white" transform="translate(0 136)"/>
</clipPath>
</defs>
</svg>
