<svg width="40" height="40" viewBox="0 0 40 40" fill="none" xmlns="http://www.w3.org/2000/svg">
<mask id="mask0_2_280" style="mask-type:alpha" maskUnits="userSpaceOnUse" x="0" y="0" width="40" height="40">
<rect width="40" height="40" fill="#D9D9D9"/>
</mask>
<g mask="url(#mask0_2_280)">
<path d="M18.1945 25.6665L27.6667 16.1943L25.7084 14.2638L18.2779 21.6943L14.3056 17.7221L12.2917 19.736L18.1945 25.6665ZM20.0001 36.6388C16.1204 35.6665 12.9283 33.4235 10.4237 29.9096C7.91907 26.3957 6.66675 22.5276 6.66675 18.3054V8.30542L20.0001 3.30542L33.3334 8.30542V18.3054C33.3334 22.5276 32.0811 26.3957 29.5765 29.9096C27.0718 33.4235 23.8797 35.6665 20.0001 36.6388ZM20.0001 33.7499C23.0927 32.7406 25.6251 30.8008 27.5973 27.9305C29.5696 25.0601 30.5557 21.8517 30.5557 18.3054V10.236L20.0001 6.26375L9.4445 10.236V18.3054C9.4445 21.8517 10.4306 25.0601 12.4028 27.9305C14.3751 30.8008 16.9075 32.7406 20.0001 33.7499Z" fill="#D9D9D9"/>
</g>
</svg>
