<svg width="40" height="40" viewBox="0 0 40 40" fill="none" xmlns="http://www.w3.org/2000/svg">
<mask id="mask0_2_318" style="mask-type:alpha" maskUnits="userSpaceOnUse" x="0" y="0" width="40" height="40">
<rect width="40" height="40" fill="#D9D9D9"/>
</mask>
<g mask="url(#mask0_2_318)">
<path d="M7.77775 36.6666C7.02775 36.6666 6.37729 36.3911 5.82637 35.8402C5.27546 35.2893 5 34.6388 5 33.8888V8.88879C5 8.13879 5.27546 7.48834 5.82637 6.93742C6.37729 6.38647 7.02775 6.111 7.77775 6.111H10.1389V3.33325H13.0555V6.111H26.9445V3.33325H29.8611V6.111H32.2222C32.9722 6.111 33.6227 6.38647 34.1736 6.93742C34.7245 7.48834 35 8.13879 35 8.88879V33.8888C35 34.6388 34.7245 35.2893 34.1736 35.8402C33.6227 36.3911 32.9722 36.6666 32.2222 36.6666H7.77775ZM7.77775 33.8888H32.2222V16.3888H7.77775V33.8888ZM7.77775 13.611H32.2222V8.88879H7.77775V13.611Z" fill="#D9D9D9"/>
</g>
</svg>
