<svg width="30" height="35" viewBox="0 0 30 35" fill="none" xmlns="http://www.w3.org/2000/svg">
<path d="M10.1786 1.60714C10.1786 0.716518 9.46205 0 8.57143 0C7.6808 0 6.96429 0.716518 6.96429 1.60714V4.28571H4.28571C1.92188 4.28571 0 6.20759 0 8.57143V9.64286V12.8571V30C0 32.3638 1.92188 34.2857 4.28571 34.2857H25.7143C28.0781 34.2857 30 32.3638 30 30V12.8571V9.64286V8.57143C30 6.20759 28.0781 4.28571 25.7143 4.28571H23.0357V1.60714C23.0357 0.716518 22.3192 0 21.4286 0C20.5379 0 19.8214 0.716518 19.8214 1.60714V4.28571H10.1786V1.60714ZM3.21429 12.8571H26.7857V30C26.7857 30.5893 26.3036 31.0714 25.7143 31.0714H4.28571C3.69643 31.0714 3.21429 30.5893 3.21429 30V12.8571Z" fill="#9A9A9A"/>
</svg>
