<svg width="40" height="40" viewBox="0 0 40 40" fill="none" xmlns="http://www.w3.org/2000/svg">
<mask id="mask0_2_275" style="mask-type:alpha" maskUnits="userSpaceOnUse" x="0" y="0" width="40" height="40">
<rect width="40" height="40" fill="#D9D9D9"/>
</mask>
<g mask="url(#mask0_2_275)">
<path d="M19.9999 36.6666C17.7036 36.6666 15.5416 36.2291 13.5138 35.3541C11.486 34.4791 9.71982 33.2893 8.21521 31.7846C6.71057 30.28 5.52075 28.5138 4.64575 26.486C3.77075 24.4583 3.33325 22.2962 3.33325 19.9999C3.33325 17.6944 3.77075 15.53 4.64575 13.5069C5.52075 11.4837 6.71057 9.71982 8.21521 8.21521C9.71982 6.71057 11.486 5.52075 13.5138 4.64575C15.5416 3.77075 17.7036 3.33325 19.9999 3.33325C22.3055 3.33325 24.4698 3.77075 26.493 4.64575C28.5161 5.52075 30.28 6.71057 31.7846 8.21521C33.2893 9.71982 34.4791 11.4837 35.3541 13.5069C36.2291 15.53 36.6666 17.6944 36.6666 19.9999V22.2777C36.6666 23.861 36.1134 25.2013 35.0069 26.2985C33.9004 27.3957 32.5462 27.9443 30.9444 27.9443C29.9444 27.9443 29.0046 27.7082 28.1249 27.236C27.2453 26.7638 26.5555 26.111 26.0555 25.2777C25.324 26.1573 24.4282 26.8217 23.368 27.2708C22.3078 27.7198 21.1851 27.9443 19.9999 27.9443C17.7869 27.9443 15.905 27.1735 14.3541 25.6318C12.8032 24.0902 12.0277 22.2129 12.0277 19.9999C12.0277 17.7869 12.8032 15.9004 14.3541 14.3402C15.905 12.78 17.7869 11.9999 19.9999 11.9999C22.2129 11.9999 24.0948 12.78 25.6458 14.3402C27.1967 15.9004 27.9721 17.7869 27.9721 19.9999V22.2777C27.9721 23.1203 28.2638 23.8124 28.8471 24.3541C29.4305 24.8958 30.1295 25.1666 30.9444 25.1666C31.7407 25.1666 32.4305 24.8958 33.0138 24.3541C33.5972 23.8124 33.8888 23.1203 33.8888 22.2777V19.9999C33.8888 16.1573 32.5347 12.8818 29.8263 10.1735C27.118 7.46517 23.8425 6.111 19.9999 6.111C16.1573 6.111 12.8818 7.46517 10.1735 10.1735C7.46517 12.8818 6.111 16.1573 6.111 19.9999C6.111 23.8425 7.46517 27.118 10.1735 29.8263C12.8818 32.5347 16.1573 33.8888 19.9999 33.8888H28.7222V36.6666H19.9999ZM19.9999 25.1666C21.4444 25.1666 22.6712 24.6666 23.6805 23.6666C24.6897 22.6666 25.1944 21.4444 25.1944 19.9999C25.1944 18.5369 24.6897 17.3008 23.6805 16.2916C22.6712 15.2823 21.4444 14.7777 19.9999 14.7777C18.5555 14.7777 17.3286 15.2823 16.3194 16.2916C15.3101 17.3008 14.8055 18.5369 14.8055 19.9999C14.8055 21.4444 15.3101 22.6666 16.3194 23.6666C17.3286 24.6666 18.5555 25.1666 19.9999 25.1666Z" fill="#D9D9D9"/>
</g>
</svg>
