<svg width="25" height="25" viewBox="0 0 40 40" fill="none" xmlns="http://www.w3.org/2000/svg">
<path d="M19.9965 10.6786C15.4691 10.6786 11.7472 12.3304 8.89333 14.4565C6.21995 16.4542 4.37288 18.8259 3.42852 20.5C4.37288 22.1741 6.21995 24.5458 8.88638 26.5435C11.7472 28.6696 15.4691 30.3214 19.9965 30.3214C24.5239 30.3214 28.2458 28.6696 31.0997 26.5435C33.7731 24.5458 35.6202 22.1741 36.5645 20.5C35.6202 18.8259 33.7731 16.4542 31.1067 14.4565C28.2458 12.3304 24.5239 10.6786 19.9965 10.6786ZM6.62269 12.4978C9.89324 10.0536 14.3859 8 19.9965 8C25.6072 8 30.0998 10.0536 33.3704 12.4978C36.6201 14.9252 38.7935 17.8214 39.8281 19.8136C40.0573 20.2545 40.0573 20.7455 39.8281 21.1864C38.7935 23.1786 36.6201 26.0804 33.3704 28.5022C30.0998 30.9464 25.6072 33 19.9965 33C14.3859 33 9.89324 30.9464 6.62269 28.5022C3.37297 26.0804 1.19955 23.1786 0.17186 21.1864C-0.0572867 20.7455 -0.0572867 20.2545 0.17186 19.8136C1.19955 17.8214 3.37297 14.9196 6.62269 12.4978Z" fill="#D9D9D9"/>
<path d="M26.6626 19.8197C26.6626 23.5768 23.6781 26.6224 19.9965 26.6224C16.3149 26.6224 13.3304 23.5768 13.3304 19.8197C13.3304 16.0627 16.3149 13.017 19.9965 13.017C23.6781 13.017 26.6626 16.0627 26.6626 19.8197Z" fill="#D9D9D9"/>
</svg>
