<svg width="31" height="11" viewBox="0 0 31 11" fill="none" xmlns="http://www.w3.org/2000/svg">
<path fill-rule="evenodd" clip-rule="evenodd" d="M1.59778 0.198355C1.15501 -0.131756 0.528465 -0.0404272 0.198355 0.402343C-0.131756 0.845113 -0.0404272 1.47166 0.402343 1.80177C1.80971 2.85104 3.24497 3.74682 4.69816 4.48952L2.83263 7.23882C2.52253 7.69583 2.64163 8.31769 3.09863 8.62779C3.55564 8.93789 4.17751 8.8188 4.48761 8.36179L6.38763 5.56166C6.43752 5.48813 6.4763 5.41033 6.50435 5.33025C9.16258 6.44794 11.8663 7.06308 14.5561 7.17813L14.5003 9.98012C14.4892 10.5323 14.9279 10.9889 15.4801 10.9999C16.0323 11.0109 16.4888 10.5722 16.4999 10.02L16.5567 7.17135C19.1273 7.0435 21.6533 6.45624 24.0816 5.42729C24.1058 5.48324 24.1354 5.53776 24.1707 5.59015L26.1707 8.55879C26.4793 9.01683 27.1008 9.13799 27.5588 8.82941C28.0168 8.52083 28.138 7.89936 27.8294 7.44133L25.8935 4.56784C27.35 3.80162 28.7647 2.87109 30.1255 1.78033C30.5564 1.43491 30.6258 0.805553 30.2803 0.37462C29.9349 -0.0563117 29.3056 -0.125632 28.8746 0.219789C24.7786 3.50304 20.2289 5.17137 15.5956 5.19767C10.9606 5.22398 6.17005 3.60724 1.59778 0.198355Z" fill="#9A9A9A"/>
</svg>
