<svg width="25" height="25" viewBox="0 0 40 40" fill="none" xmlns="http://www.w3.org/2000/svg">
<mask id="mask0_2_336" style="mask-type:alpha" maskUnits="userSpaceOnUse" x="0" y="0" width="40" height="40">
<rect width="40" height="40" fill="#D9D9D9"/>
</mask>
<g mask="url(#mask0_2_336)">
<path d="M26.4167 22.4167L24.389 20.389C24.9538 18.6389 24.5788 17.1389 23.264 15.8889C21.9492 14.6389 20.4538 14.2686 18.7778 14.7778L16.7501 12.75C17.2223 12.4723 17.7339 12.2686 18.2848 12.139C18.8357 12.0093 19.4075 11.9445 20.0001 11.9445C22.0093 11.9445 23.7153 12.6459 25.1181 14.0487C26.5209 15.4514 27.2223 17.1575 27.2223 19.1667C27.2223 19.7593 27.1528 20.3357 27.014 20.8959C26.8751 21.4561 26.676 21.963 26.4167 22.4167ZM31.7778 27.75L29.8612 25.8612C31.1205 24.926 32.2246 23.8866 33.1737 22.7431C34.1228 21.5996 34.852 20.4075 35.3612 19.1667C33.9723 16.176 31.9191 13.8079 29.2015 12.0625C26.4839 10.3172 23.5093 9.44446 20.2779 9.44446C19.2316 9.44446 18.1714 9.53706 17.0973 9.72225C16.0232 9.90744 15.1297 10.1389 14.4167 10.4167L12.2778 8.25004C13.3056 7.79635 14.5232 7.41903 15.9306 7.11808C17.338 6.81717 18.7408 6.66671 20.139 6.66671C24.1853 6.66671 27.8519 7.80792 31.139 10.0903C34.426 12.3727 36.8242 15.3982 38.3334 19.1667C37.639 20.8982 36.7385 22.4885 35.632 23.9375C34.5255 25.3866 33.2408 26.6575 31.7778 27.75ZM33.6667 37.4445L26.6667 30.5556C25.6945 30.9167 24.6367 31.1922 23.4932 31.382C22.3496 31.5718 21.1853 31.6667 20.0001 31.6667C15.8982 31.6667 12.1992 30.5255 8.90287 28.2431C5.60657 25.9607 3.19453 22.9352 1.66675 19.1667C2.23155 17.713 2.99082 16.3172 3.94454 14.9792C4.89823 13.6412 6.03712 12.3889 7.36121 11.2222L2.33341 6.16667L4.27783 4.19446L35.5279 35.4445L33.6667 37.4445ZM9.27787 13.1667C8.32415 13.9075 7.41673 14.8288 6.55562 15.9306C5.69451 17.0325 5.04636 18.1112 4.61116 19.1667C6.01858 22.1575 8.10423 24.5255 10.8681 26.2709C13.632 28.0163 16.7501 28.889 20.2223 28.889C21.0186 28.889 21.801 28.8403 22.5695 28.7431C23.3381 28.6459 23.9631 28.5093 24.4446 28.3334L22.1667 26.0278C21.8612 26.1482 21.514 26.2385 21.1251 26.2986C20.7362 26.3588 20.3612 26.3889 20.0001 26.3889C18.0093 26.3889 16.3079 25.6922 14.8959 24.2987C13.4839 22.9051 12.7779 21.1945 12.7779 19.1667C12.7779 18.7871 12.808 18.4121 12.8682 18.0417C12.9283 17.6713 13.0186 17.3241 13.139 17L9.27787 13.1667Z" fill="#D9D9D9"/>
</g>
</svg>
