<svg width="40" height="35" viewBox="0 0 40 35" fill="none" xmlns="http://www.w3.org/2000/svg">
<mask id="mask0_2_292" style="mask-type:alpha" maskUnits="userSpaceOnUse" x="0" y="5" width="30" height="30">
<rect y="5" width="29.2683" height="30" fill="#D9D9D9"/>
</mask>
<g mask="url(#mask0_2_292)">
<path d="M13.6198 31.2502V28.7502H11.1808V26.6669H13.6198V23.6669C11.9734 23.4169 10.6133 22.6429 9.53947 21.3449C8.46563 20.0469 7.92871 18.5432 7.92871 16.8336C7.92871 14.9319 8.5842 13.3176 9.89517 11.9907C11.2061 10.6637 12.7864 10.0002 14.636 10.0002C16.4856 10.0002 18.0659 10.6637 19.3769 11.9907C20.6879 13.3176 21.3433 14.9319 21.3433 16.8336C21.3433 18.5432 20.8064 20.0469 19.7326 21.3449C18.6587 22.6429 17.2986 23.4169 15.6523 23.6669V26.6669H18.0913V28.7502H15.6523V31.2502H13.6198ZM14.6319 21.6669C15.9219 21.6669 17.0242 21.1996 17.9389 20.2649C18.8535 19.3302 19.3108 18.2017 19.3108 16.8795C19.3108 15.5572 18.8549 14.4273 17.943 13.4898C17.0311 12.5523 15.9301 12.0836 14.6401 12.0836C13.3501 12.0836 12.2478 12.5509 11.3332 13.4856C10.4185 14.4203 9.96121 15.5488 9.96121 16.871C9.96121 18.1933 10.4172 19.3232 11.3291 20.2607C12.241 21.1982 13.3419 21.6669 14.6319 21.6669Z" fill="#D9D9D9"/>
</g>
<mask id="mask1_2_292" style="mask-type:alpha" maskUnits="userSpaceOnUse" x="10" y="0" width="30" height="30">
<rect x="10.731" width="29.2683" height="30" fill="#D9D9D9"/>
</mask>
<g mask="url(#mask1_2_292)">
<path d="M35.1194 5.00024V12.0836H33.0869V8.57315L27.7312 14.0315C28.1444 14.6287 28.4629 15.2763 28.6864 15.9742C28.91 16.6721 29.0218 17.3891 29.0218 18.1252C29.0218 20.0419 28.3714 21.6669 27.0706 23.0002C25.7698 24.3336 24.1844 25.0002 22.3145 25.0002C20.4446 25.0002 18.8592 24.3336 17.5584 23.0002C16.2576 21.6669 15.6072 20.0419 15.6072 18.1252C15.6072 16.2086 16.2576 14.5836 17.5584 13.2502C18.8592 11.9169 20.4446 11.2502 22.3145 11.2502C23.0259 11.2502 23.7203 11.3631 24.3978 11.5888C25.0753 11.8145 25.702 12.1426 26.2779 12.5732L31.6336 7.08356H28.2088V5.00024H35.1194ZM22.3186 13.3336C21.0286 13.3336 19.9263 13.8009 19.0116 14.7356C18.097 15.6703 17.6397 16.7988 17.6397 18.121C17.6397 19.4433 18.0956 20.5732 19.0075 21.5107C19.9194 22.4482 21.0204 22.9169 22.3104 22.9169C23.6004 22.9169 24.7027 22.4496 25.6174 21.5149C26.532 20.5802 26.9893 19.4517 26.9893 18.1295C26.9893 16.8072 26.5334 15.6773 25.6214 14.7398C24.7096 13.8023 23.6086 13.3336 22.3186 13.3336Z" fill="#D9D9D9"/>
</g>
</svg>
