<svg width="40" height="40" viewBox="0 0 40 40" fill="none" xmlns="http://www.w3.org/2000/svg">
<mask id="mask0_2_262" style="mask-type:alpha" maskUnits="userSpaceOnUse" x="0" y="0" width="40" height="40">
<rect width="40" height="40" fill="#D9D9D9"/>
</mask>
<g mask="url(#mask0_2_262)">
<path d="M9.4445 36.6667C8.68061 36.6667 8.02668 36.3948 7.48271 35.8508C6.93873 35.3068 6.66675 34.6529 6.66675 33.889V16.2778C6.66675 15.514 6.93873 14.86 7.48271 14.316C8.02668 13.7721 8.68061 13.5001 9.4445 13.5001H11.9445V9.72229C11.9445 7.4936 12.7302 5.59383 14.3016 4.023C15.873 2.45216 17.7735 1.66675 20.003 1.66675C22.2325 1.66675 24.132 2.45216 25.7015 4.023C27.2709 5.59383 28.0556 7.4936 28.0556 9.72229V13.5001H30.5557C31.3196 13.5001 31.9735 13.7721 32.5175 14.316C33.0614 14.86 33.3334 15.514 33.3334 16.2778V33.889C33.3334 34.6529 33.0614 35.3068 32.5175 35.8508C31.9735 36.3948 31.3196 36.6667 30.5557 36.6667H9.4445ZM9.4445 33.889H30.5557V16.2778H9.4445V33.889ZM20.0047 28.3334C20.8998 28.3334 21.6644 28.0206 22.2987 27.395C22.933 26.7695 23.2501 26.0174 23.2501 25.139C23.2501 24.2778 22.9314 23.5117 22.294 22.8404C21.6567 22.1691 20.8904 21.8334 19.9954 21.8334C19.1004 21.8334 18.3357 22.1691 17.7015 22.8404C17.0672 23.5117 16.7501 24.2825 16.7501 25.1529C16.7501 26.0232 17.0688 26.7709 17.7061 27.3959C18.3435 28.0209 19.1097 28.3334 20.0047 28.3334ZM14.7223 13.5001H25.2779V9.72229C25.2779 8.25623 24.7651 7.0101 23.7395 5.98387C22.7139 4.95762 21.4685 4.4445 20.0033 4.4445C18.5382 4.4445 17.2917 4.95762 16.264 5.98387C15.2362 7.0101 14.7223 8.25623 14.7223 9.72229V13.5001Z" fill="#D9D9D9"/>
</g>
</svg>
