<svg width="40" height="40" viewBox="0 0 40 40" fill="none" xmlns="http://www.w3.org/2000/svg">
<mask id="mask0_2_313" style="mask-type:alpha" maskUnits="userSpaceOnUse" x="0" y="0" width="40" height="40">
<rect width="40" height="40" fill="#D9D9D9"/>
</mask>
<g mask="url(#mask0_2_313)">
<path d="M33.1667 35C29.713 35 26.3033 34.1782 22.9375 32.5347C19.5717 30.8912 16.5625 28.7431 13.9097 26.0903C11.2569 23.4375 9.10879 20.4283 7.46529 17.0625C5.82176 13.6967 5 10.287 5 6.83333C5 6.30953 5.1746 5.87301 5.52379 5.52379C5.87301 5.1746 6.30953 5 6.83333 5H12.9722C13.3539 5 13.6947 5.12963 13.9946 5.38888C14.2945 5.64815 14.4815 5.99075 14.5555 6.41667L15.6667 11.8611C15.7222 12.25 15.7153 12.6041 15.6458 12.9236C15.5764 13.243 15.4259 13.5185 15.1944 13.75L11.0694 17.9167C12.4954 20.3056 14.1458 22.4306 16.0208 24.2917C17.8958 26.1528 20 27.7408 22.3333 29.0556L26.2778 25.0278C26.5463 24.7408 26.8681 24.5348 27.2431 24.4098C27.6181 24.2848 27.9908 24.2593 28.3611 24.3333L33.5833 25.4445C33.9965 25.5347 34.3359 25.7379 34.6016 26.0538C34.8672 26.3698 35 26.7408 35 27.1667V33.1667C35 33.6905 34.8254 34.127 34.4762 34.4762C34.127 34.8254 33.6905 35 33.1667 35ZM9.70833 15.3333L12.875 12.1389L12 7.77775H7.79167C7.83794 8.87961 8.01386 10.0463 8.31942 11.2778C8.62497 12.5093 9.08794 13.8611 9.70833 15.3333ZM24.9305 30.3889C26.0509 30.8982 27.2431 31.3102 28.507 31.625C29.7708 31.9398 31.0093 32.1297 32.2222 32.1945V28L28.0556 27.1528L24.9305 30.3889Z" fill="#D9D9D9"/>
</g>
</svg>
