<svg width="40" height="40" viewBox="0 0 40 40" fill="none" xmlns="http://www.w3.org/2000/svg">
<mask id="mask0_2_308" style="mask-type:alpha" maskUnits="userSpaceOnUse" x="0" y="0" width="40" height="40">
<rect width="40" height="40" fill="#D9D9D9"/>
</mask>
<g mask="url(#mask0_2_308)">
<path d="M20.0001 19.9721C18.1667 19.9721 16.6436 19.3656 15.4306 18.1527C14.2177 16.9397 13.6112 15.4165 13.6112 13.5832C13.6112 11.7499 14.2177 10.2267 15.4306 9.01379C16.6436 7.80082 18.1667 7.19434 20.0001 7.19434C21.8334 7.19434 23.3566 7.80082 24.5695 9.01379C25.7825 10.2267 26.389 11.7499 26.389 13.5832C26.389 15.4165 25.7825 16.9397 24.5695 18.1527C23.3566 19.3656 21.8334 19.9721 20.0001 19.9721ZM6.66675 33.3332V29.1665C6.66675 28.148 6.92369 27.2569 7.43758 26.493C7.95147 25.7291 8.62046 25.148 9.44454 24.7499C11.2593 23.9073 13.0325 23.2754 14.764 22.854C16.4955 22.4328 18.2408 22.2221 20.0001 22.2221C21.7593 22.2221 23.5001 22.4374 25.2223 22.868C26.9445 23.2985 28.7123 23.9276 30.5257 24.7553C31.3738 25.1558 32.0538 25.7365 32.5657 26.4974C33.0775 27.2583 33.3334 28.148 33.3334 29.1665V33.3332H6.66675ZM9.4445 30.5555H30.5557V29.1665C30.5557 28.7684 30.4422 28.3934 30.2154 28.0415C29.9885 27.6897 29.7038 27.4258 29.3612 27.2499C27.676 26.4258 26.088 25.8448 24.5973 25.5068C23.1066 25.1689 21.5742 24.9999 20.0001 24.9999C18.426 24.9999 16.8843 25.1689 15.3751 25.5068C13.8658 25.8448 12.2779 26.4258 10.6112 27.2499C10.2686 27.4258 9.9885 27.6897 9.77091 28.0415C9.5533 28.3934 9.4445 28.7684 9.4445 29.1665V30.5555ZM20.0001 17.1943C21.0279 17.1943 21.8867 16.8494 22.5765 16.1596C23.2663 15.4698 23.6112 14.611 23.6112 13.5832C23.6112 12.5554 23.2663 11.6966 22.5765 11.0068C21.8867 10.317 21.0279 9.97209 20.0001 9.97209C18.9723 9.97209 18.1135 10.317 17.4237 11.0068C16.7339 11.6966 16.389 12.5554 16.389 13.5832C16.389 14.611 16.7339 15.4698 17.4237 16.1596C18.1135 16.8494 18.9723 17.1943 20.0001 17.1943Z" fill="#D9D9D9"/>
</g>
</svg>
