<svg width="30" height="24" viewBox="0 0 30 24" fill="none" xmlns="http://www.w3.org/2000/svg">
<g clip-path="url(#clip0_207_32)">
<path d="M8.25 13.5C8.93944 13.5 9.62213 13.3642 10.2591 13.1004C10.896 12.8365 11.4748 12.4498 11.9623 11.9623C12.4498 11.4748 12.8365 10.896 13.1004 10.2591C13.3642 9.62213 13.5 8.93944 13.5 8.25C13.5 7.56056 13.3642 6.87787 13.1004 6.24091C12.8365 5.60395 12.4498 5.0252 11.9623 4.53769C11.4748 4.05018 10.896 3.66347 10.2591 3.39963C9.62213 3.1358 8.93944 3 8.25 3C7.56056 3 6.87787 3.1358 6.24091 3.39963C5.60395 3.66347 5.0252 4.05018 4.53769 4.53769C4.05018 5.0252 3.66347 5.60395 3.39963 6.24091C3.1358 6.87787 3 7.56056 3 8.25C3 8.93944 3.1358 9.62213 3.39963 10.2591C3.66347 10.896 4.05018 11.4748 4.53769 11.9623C5.0252 12.4498 5.60395 12.8365 6.24091 13.1004C6.87787 13.3642 7.56056 13.5 8.25 13.5ZM16.5 8.25C16.5 12.2953 13.5891 15.6609 9.75 16.3641V18H11.25C12.0797 18 12.75 18.6703 12.75 19.5C12.75 20.3297 12.0797 21 11.25 21H9.75V22.5C9.75 23.3297 9.07969 24 8.25 24C7.42031 24 6.75 23.3297 6.75 22.5V21H5.25C4.42031 21 3.75 20.3297 3.75 19.5C3.75 18.6703 4.42031 18 5.25 18H6.75V16.3641C2.91094 15.6609 0 12.2953 0 8.25C0 3.69375 3.69375 0 8.25 0C12.8062 0 16.5 3.69375 16.5 8.25ZM12.7453 16.9031C13.65 16.4297 14.475 15.8203 15.1875 15.1031C16.125 15.9703 17.3766 16.5 18.7547 16.5C21.6562 16.5 24.0047 14.1516 24.0047 11.25C24.0047 8.34844 21.6562 6 18.7547 6C18.4172 6 18.0844 6.03281 17.7656 6.09375C17.5359 5.08594 17.1562 4.13906 16.6406 3.27188C17.3109 3.09375 18.0187 3 18.75 3C20.4844 3 22.0969 3.53437 23.4281 4.45312L24.3938 3.4875L22.8281 1.92188C22.5047 1.59844 22.4109 1.11563 22.5844 0.69375C22.7578 0.271875 23.1703 0 23.625 0H28.875C29.4984 0 30 0.501562 30 1.125V6.375C30 6.82969 29.7281 7.24219 29.3063 7.41562C28.8844 7.58906 28.4016 7.49531 28.0781 7.17188L26.5125 5.60625L25.5469 6.57187C26.4609 7.90312 27 9.51094 27 11.25C27 15.8062 23.3062 19.5 18.75 19.5C16.3828 19.5 14.25 18.5016 12.7453 16.9031Z" fill="#9A9A9A"/>
</g>
<defs>
<clipPath id="clip0_207_32">
<rect width="30" height="24" fill="white"/>
</clipPath>
</defs>
</svg>
