<svg width="30" height="35" viewBox="0 0 30 35" fill="none" xmlns="http://www.w3.org/2000/svg">
<path d="M17.1562 13.125H12.9688V12.4688C12.9688 11.3116 13.9054 10.375 15.0625 10.375C16.2196 10.375 17.1562 11.3116 17.1562 12.4688V13.125ZM7.09375 12.4688V13.1947C5.05164 13.5636 3.5 15.3525 3.5 17.5V26.125C3.5 28.5392 5.46083 30.5 7.875 30.5H22.25C24.6642 30.5 26.625 28.5392 26.625 26.125V17.5C26.625 15.3525 25.0734 13.5636 23.0312 13.1947V12.4688C23.0312 8.06903 19.4622 4.5 15.0625 4.5C10.6628 4.5 7.09375 8.06903 7.09375 12.4688Z" stroke="#9A9A9A" stroke-width="3"/>
<path fill-rule="evenodd" clip-rule="evenodd" d="M16 21.7324C16.5978 21.3866 17 20.7403 17 20C17 18.8954 16.1046 18 15 18C13.8954 18 13 18.8954 13 20C13 20.7403 13.4022 21.3866 14 21.7324V25H16V21.7324Z" fill="#9A9A9A"/>
</svg>
