<svg width="30" height="24" viewBox="0 0 30 24" fill="none" xmlns="http://www.w3.org/2000/svg">
<path d="M3.75 3.5625C3.23438 3.5625 2.8125 3.98438 2.8125 4.5V5.79492L12.9199 14.0918C14.1328 15.0879 15.873 15.0879 17.0859 14.0918L27.1875 5.79492V4.5C27.1875 3.98438 26.7656 3.5625 26.25 3.5625H3.75ZM2.8125 9.43359V19.5C2.8125 20.0156 3.23438 20.4375 3.75 20.4375H26.25C26.7656 20.4375 27.1875 20.0156 27.1875 19.5V9.43359L18.8672 16.2656C16.6172 18.1113 13.377 18.1113 11.1328 16.2656L2.8125 9.43359ZM0 4.5C0 2.43164 1.68164 0.75 3.75 0.75H26.25C28.3184 0.75 30 2.43164 30 4.5V19.5C30 21.5684 28.3184 23.25 26.25 23.25H3.75C1.68164 23.25 0 21.5684 0 19.5V4.5Z" fill="#9A9A9A"/>
</svg>
