<svg width="30" height="27" viewBox="0 0 30 27" fill="none" xmlns="http://www.w3.org/2000/svg">
<path d="M0 4.99996H30C30 3.16142 28.5052 1.66663 26.6667 1.66663H3.33333C1.49479 1.66663 0 3.16142 0 4.99996ZM0 6.66663V21.6666C0 23.5052 1.49479 25 3.33333 25H26.6667C28.5052 25 30 23.5052 30 21.6666V6.66663H0ZM3.33333 21.1093C3.33333 19.5729 4.57812 18.3333 6.10938 18.3333H12.224C13.7604 18.3333 15 19.5781 15 21.1093C15 21.4166 14.75 21.6666 14.4427 21.6666H3.89062C3.58333 21.6666 3.33333 21.4166 3.33333 21.1093ZM9.16667 9.99996C10.0507 9.99996 10.8986 10.3511 11.5237 10.9763C12.1488 11.6014 12.5 12.4492 12.5 13.3333C12.5 14.2173 12.1488 15.0652 11.5237 15.6903C10.8986 16.3154 10.0507 16.6666 9.16667 16.6666C8.28261 16.6666 7.43476 16.3154 6.80964 15.6903C6.18452 15.0652 5.83333 14.2173 5.83333 13.3333C5.83333 12.4492 6.18452 11.6014 6.80964 10.9763C7.43476 10.3511 8.28261 9.99996 9.16667 9.99996ZM18.3333 10.8333C18.3333 10.375 18.7083 9.99996 19.1667 9.99996H25.8333C26.2917 9.99996 26.6667 10.375 26.6667 10.8333C26.6667 11.2916 26.2917 11.6666 25.8333 11.6666H19.1667C18.7083 11.6666 18.3333 11.2916 18.3333 10.8333ZM18.3333 14.1666C18.3333 13.7083 18.7083 13.3333 19.1667 13.3333H25.8333C26.2917 13.3333 26.6667 13.7083 26.6667 14.1666C26.6667 14.625 26.2917 15 25.8333 15H19.1667C18.7083 15 18.3333 14.625 18.3333 14.1666ZM18.3333 17.5C18.3333 17.0416 18.7083 16.6666 19.1667 16.6666H25.8333C26.2917 16.6666 26.6667 17.0416 26.6667 17.5C26.6667 17.9583 26.2917 18.3333 25.8333 18.3333H19.1667C18.7083 18.3333 18.3333 17.9583 18.3333 17.5Z" fill="#9A9A9A"/>
</svg>
