<svg width="30" height="30" viewBox="0 0 30 30" fill="white" xmlns="http://www.w3.org/2000/svg">
<path d="M9.66211 1.44138C9.21094 0.351541 8.02148 -0.228537 6.88477 0.0820096L1.72852 1.48826C0.708984 1.76951 0 2.69529 0 3.74998C0 18.2461 11.7539 30 26.25 30C27.3047 30 28.2305 29.291 28.5117 28.2715L29.918 23.1152C30.2285 21.9785 29.6484 20.789 28.5586 20.3379L22.9336 17.9941C21.9785 17.5957 20.8711 17.8711 20.2207 18.6738L17.8535 21.5625C13.7285 19.6113 10.3887 16.2715 8.4375 12.1465L11.3262 9.78513C12.1289 9.12888 12.4043 8.02732 12.0059 7.07224L9.66211 1.44724V1.44138Z" fill="#9A9A9A"/>
</svg>