<svg width="30" height="37" viewBox="0 0 36 37" fill="none" xmlns="http://www.w3.org/2000/svg">
<g clip-path="url(#clip0_50_54)">
<path d="M11.3801 7.81845C11.3797 7.28373 11.8715 6.84586 12.4731 6.84542L23.4106 6.83735C24.0122 6.83691 24.5047 7.27404 24.5051 7.80876L24.5223 31.1421C24.5227 31.6768 24.0308 32.1147 23.4293 32.1151L12.4918 32.1232C11.8902 32.1236 11.3977 31.6865 11.3973 31.1518L11.3801 7.81845ZM7.02229 31.155C7.02427 33.8408 9.47314 36.0143 12.4946 36.0121L23.4321 36.004C26.4536 36.0018 28.8993 33.8246 28.8973 31.1389L28.8801 7.80554C28.8781 5.11977 26.4292 2.94623 23.4077 2.94846L22.314 2.94927C22.3132 1.87375 21.335 1.00555 20.1251 1.00644L15.7501 1.00967C14.5401 1.01056 13.5632 1.8802 13.564 2.95573L12.4702 2.95653C9.44875 2.95876 7.00309 5.13592 7.00507 7.82168L7.02229 31.155ZM13.5798 24.3446L13.5841 30.1779L22.3341 30.1715L22.3298 24.3382L13.5798 24.3446Z" fill="#F8B195"/>
</g>
<defs>
<clipPath id="clip0_50_54">
<rect width="35" height="35" fill="white" transform="translate(0.0258789 36.0229) rotate(-90.0423)"/>
</clipPath>
</defs>
</svg>
