<svg width="966" height="263" viewBox="0 0 966 263" fill="none" xmlns="http://www.w3.org/2000/svg">
<path d="M181.897 27.274C168.999 22.0162 154.856 19.1143 140.023 19.1143C112.938 19.1143 88.152 28.791 69.047 44.8196C63.094 49.8139 57.6927 55.425 52.9452 61.5522M30.6284 126.657C30.6284 156.355 42.8729 183.241 62.6695 202.702C72.746 212.608 84.7792 220.59 98.1502 226.041M181.897 226.041C195.268 220.59 207.301 212.608 217.377 202.702C237.174 183.241 249.418 156.355 249.418 126.657C249.418 112.076 246.467 98.1727 241.118 85.493" stroke="#5EA7FF" stroke-width="16" stroke-linecap="round"/>
<path fill-rule="evenodd" clip-rule="evenodd" d="M236.62 54.979L168.149 53.2892L196.91 0.000159206L236.62 54.979Z" fill="#B4DFFB"/>
<path fill-rule="evenodd" clip-rule="evenodd" d="M141.069 233.851L192.315 189.082L208.171 247.379L141.069 233.851Z" fill="#B4DFFB"/>
<path fill-rule="evenodd" clip-rule="evenodd" d="M30.6306 79.4678L61.2612 139.821H0L30.6306 79.4678Z" fill="#B4DFFB"/>
<path d="M208.533 85.183C206.327 84.5552 204.21 84.681 202.334 85.3447C201.055 85.7973 199.719 84.9886 199.178 83.7149C196.786 78.0841 191.328 74.1455 184.965 74.1455C178.179 74.1455 172.425 78.6283 170.318 84.8631C170.026 84.8378 169.746 84.7731 169.448 84.7731C163.4 84.7731 158.564 90.1059 159.152 96.4445C159.665 101.97 164.49 106.028 169.893 106.028H205.655C212.136 106.028 217.225 99.906 215.741 92.9841C214.944 89.2667 212.104 86.1997 208.533 85.183Z" fill="#E4EAF8"/>
<path d="M142.531 114C147.804 110.749 151.345 104.836 151.345 98.0581C151.345 87.7865 143.239 79.4596 133.241 79.4596C132.165 79.4596 131.116 79.5743 130.091 79.7591L130.092 79.7513C129.028 79.9481 127.918 79.4789 127.33 78.5468C123.644 72.7026 117.248 68.832 109.965 68.832C101.38 68.832 94.035 74.2117 90.9076 81.8641C90.3574 83.2107 88.8831 83.9596 87.5756 83.3862C84.6568 82.107 81.2815 81.7173 77.7606 82.5739C72.072 83.9578 67.5377 88.7539 66.3471 94.6341C64.2615 104.934 71.8587 114 81.517 114H142.531Z" fill="#E4EAF8"/>
<path d="M172.035 98.0582C172.035 92.1888 176.666 87.4306 182.379 87.4306C182.677 87.4306 182.958 87.4953 183.249 87.5206C184.956 82.4696 189.074 78.6146 194.179 77.3153C191.6 75.3439 188.429 74.146 184.966 74.146C178.179 74.146 172.425 78.6288 170.318 84.8636C170.027 84.8383 169.746 84.7736 169.448 84.7736C163.735 84.7736 159.104 89.5318 159.104 95.4012C159.104 101.271 163.735 106.029 169.448 106.029C171.077 106.029 173.204 106.029 175.602 106.029C173.433 104.081 172.035 101.25 172.035 98.0582Z" fill="#D5DCED"/>
<path d="M81.8644 99.9476C83.0551 94.068 87.5893 89.2716 93.2779 87.8874C96.7991 87.0308 100.174 87.4205 103.093 88.6997C104.4 89.2731 105.875 88.5242 106.425 87.1776C109.338 80.0492 115.928 74.9531 123.754 74.2807C120.094 70.9043 115.273 68.832 109.965 68.832C101.38 68.832 94.0352 74.2117 90.9078 81.8641C90.3576 83.2107 88.8834 83.9596 87.5759 83.3862C84.657 82.107 81.2817 81.7173 77.7608 82.5739C72.0723 83.9578 67.538 88.7539 66.3474 94.6341C64.2617 104.934 71.859 114 81.5173 114H85.4976C82.3587 110.406 80.7693 105.354 81.8644 99.9476Z" fill="#D5DCED"/>
<path d="M192.959 122.133C189.777 121.766 186.718 122.035 183.844 122.789C182.534 123.132 181.172 122.359 180.805 121.022C175.897 103.173 159.944 90.0874 141 90.0874C125.956 90.0874 112.787 98.3357 105.543 110.67C104.968 111.651 103.88 112.14 102.785 111.922C97.6533 110.902 92.1041 111.107 86.2237 113.529C74.5175 118.351 66.2004 129.762 66.0038 142.718C65.7337 160.559 79.73 175.109 97.0345 175.109H189.225C200.595 175.109 211.099 167.935 214.678 156.848C220.009 140.331 208.504 123.927 192.959 122.133Z" fill="#D5DCED"/>
<path d="M91.8659 148.032C92.0622 135.076 100.38 123.665 112.086 118.843C117.966 116.42 123.515 116.216 128.647 117.236C129.742 117.454 130.829 116.965 131.406 115.984C137.787 105.117 148.771 97.4292 161.583 95.7524C155.519 92.1654 148.502 90.0874 141 90.0874C125.956 90.0874 112.787 98.3354 105.544 110.67C104.968 111.651 103.88 112.14 102.785 111.922C97.6535 110.902 92.1041 111.106 86.2239 113.529C74.5178 118.351 66.2007 129.762 66.0041 142.718C65.734 160.559 79.7303 175.109 97.0348 175.109H105.768C97.2656 169.312 91.6945 159.34 91.8659 148.032Z" fill="#C7CFE2"/>
<path d="M151.345 159.167C142.788 159.167 135.827 152.017 135.827 143.226V132.598C135.827 123.807 142.788 116.656 151.345 116.656C159.902 116.656 166.862 123.807 166.862 132.598V143.226C166.862 152.017 159.902 159.167 151.345 159.167ZM151.345 121.97C145.64 121.97 141 126.738 141 132.598V143.226C141 149.086 145.64 153.853 151.345 153.853C157.05 153.853 161.69 149.086 161.69 143.226V132.598C161.69 126.738 157.05 121.97 151.345 121.97Z" fill="#707487"/>
<path d="M120.31 159.167C111.754 159.167 104.793 152.017 104.793 143.226V132.598C104.793 123.807 111.753 116.656 120.31 116.656C125.23 116.656 129.754 118.976 132.713 123.021C133.572 124.193 133.345 125.859 132.203 126.741C131.057 127.624 129.44 127.386 128.582 126.215C126.604 123.518 123.591 121.97 120.31 121.97C114.605 121.97 109.966 126.738 109.966 132.598V143.225C109.966 149.085 114.605 153.853 120.31 153.853C123.594 153.853 126.612 152.302 128.587 149.6C129.443 148.427 131.069 148.191 132.208 149.071C133.35 149.953 133.58 151.619 132.724 152.791C129.761 156.844 125.238 159.167 120.31 159.167Z" fill="#707487"/>
<path d="M182.379 164.481H172.035C170.605 164.481 169.448 163.291 169.448 161.824V160.496C169.448 158.83 170.223 157.241 171.522 156.243L178.76 150.666C179.407 150.166 179.793 149.371 179.793 148.54C179.793 147.075 178.634 145.883 177.207 145.883C175.78 145.883 174.621 147.075 174.621 148.54C174.621 150.007 173.464 151.197 172.034 151.197C170.605 151.197 169.448 150.007 169.448 148.54C169.448 144.144 172.928 140.569 177.207 140.569C181.485 140.569 184.965 144.144 184.965 148.54C184.965 151.033 183.806 153.416 181.864 154.915L176.346 159.168H182.379C183.809 159.168 184.966 160.357 184.966 161.825C184.966 163.292 183.809 164.481 182.379 164.481Z" fill="#707487"/>
<path d="M216 205L1035 203.875" stroke="#5EA7FF" stroke-width="15" stroke-linecap="round"/>
<path d="M331.835 99.8182V158H321.295V110.074H320.955L307.347 118.767V109.108L321.807 99.8182H331.835ZM367.915 158.795C365.131 158.777 362.413 158.294 359.761 157.347C357.11 156.381 354.723 154.818 352.602 152.659C350.481 150.481 348.795 147.593 347.545 143.994C346.295 140.377 345.68 135.898 345.699 130.557C345.699 125.576 346.229 121.134 347.29 117.233C348.35 113.331 349.875 110.036 351.864 107.347C353.852 104.638 356.248 102.574 359.051 101.153C361.873 99.733 365.027 99.0227 368.511 99.0227C372.167 99.0227 375.405 99.7424 378.227 101.182C381.068 102.621 383.36 104.591 385.102 107.091C386.845 109.572 387.924 112.375 388.341 115.5H377.972C377.441 113.265 376.352 111.485 374.705 110.159C373.076 108.814 371.011 108.142 368.511 108.142C364.477 108.142 361.371 109.894 359.193 113.398C357.034 116.902 355.945 121.712 355.926 127.83H356.324C357.252 126.163 358.455 124.733 359.932 123.54C361.409 122.347 363.076 121.428 364.932 120.784C366.807 120.121 368.786 119.79 370.869 119.79C374.278 119.79 377.337 120.604 380.045 122.233C382.773 123.862 384.932 126.106 386.523 128.966C388.114 131.807 388.9 135.064 388.881 138.739C388.9 142.564 388.028 146.002 386.267 149.051C384.506 152.081 382.053 154.468 378.909 156.21C375.765 157.953 372.1 158.814 367.915 158.795ZM367.858 150.273C369.922 150.273 371.769 149.771 373.398 148.767C375.027 147.763 376.314 146.409 377.261 144.705C378.208 143 378.672 141.087 378.653 138.966C378.672 136.883 378.218 134.998 377.29 133.312C376.381 131.627 375.121 130.292 373.511 129.307C371.902 128.322 370.064 127.83 368 127.83C366.466 127.83 365.036 128.123 363.71 128.71C362.384 129.297 361.229 130.112 360.244 131.153C359.259 132.176 358.483 133.369 357.915 134.733C357.366 136.078 357.081 137.517 357.062 139.051C357.081 141.078 357.555 142.943 358.483 144.648C359.411 146.352 360.689 147.716 362.318 148.739C363.947 149.761 365.794 150.273 367.858 150.273ZM422.148 99.8182V158H411.608V110.074H411.267L397.659 118.767V109.108L412.119 99.8182H422.148ZM440.166 158.625C438.443 158.625 436.965 158.019 435.734 156.807C434.503 155.595 433.897 154.117 433.916 152.375C433.897 150.67 434.503 149.212 435.734 148C436.965 146.788 438.443 146.182 440.166 146.182C441.833 146.182 443.282 146.788 444.513 148C445.763 149.212 446.397 150.67 446.416 152.375C446.397 153.53 446.094 154.581 445.507 155.528C444.939 156.475 444.181 157.233 443.234 157.801C442.306 158.35 441.284 158.625 440.166 158.625ZM475.415 158.795C471.191 158.795 467.441 158.085 464.165 156.665C460.907 155.244 458.35 153.303 456.494 150.841C454.657 148.36 453.748 145.547 453.767 142.403C453.748 139.96 454.278 137.716 455.358 135.67C456.438 133.625 457.896 131.92 459.733 130.557C461.589 129.174 463.653 128.294 465.926 127.915V127.517C462.934 126.854 460.509 125.33 458.653 122.943C456.816 120.538 455.907 117.763 455.926 114.619C455.907 111.627 456.741 108.956 458.426 106.608C460.112 104.259 462.422 102.413 465.358 101.068C468.294 99.7045 471.646 99.0227 475.415 99.0227C479.146 99.0227 482.47 99.7045 485.386 101.068C488.322 102.413 490.633 104.259 492.318 106.608C494.023 108.956 494.875 111.627 494.875 114.619C494.875 117.763 493.938 120.538 492.062 122.943C490.206 125.33 487.811 126.854 484.875 127.517V127.915C487.148 128.294 489.193 129.174 491.011 130.557C492.848 131.92 494.307 133.625 495.386 135.67C496.485 137.716 497.034 139.96 497.034 142.403C497.034 145.547 496.106 148.36 494.25 150.841C492.394 153.303 489.837 155.244 486.58 156.665C483.341 158.085 479.619 158.795 475.415 158.795ZM475.415 150.67C477.593 150.67 479.487 150.301 481.097 149.562C482.706 148.805 483.956 147.744 484.847 146.381C485.737 145.017 486.191 143.445 486.21 141.665C486.191 139.809 485.708 138.17 484.761 136.75C483.833 135.311 482.555 134.184 480.926 133.369C479.316 132.555 477.479 132.148 475.415 132.148C473.331 132.148 471.475 132.555 469.847 133.369C468.218 134.184 466.93 135.311 465.983 136.75C465.055 138.17 464.6 139.809 464.619 141.665C464.6 143.445 465.036 145.017 465.926 146.381C466.816 147.725 468.066 148.777 469.676 149.534C471.305 150.292 473.218 150.67 475.415 150.67ZM475.415 124.165C477.195 124.165 478.767 123.805 480.131 123.085C481.513 122.366 482.602 121.362 483.398 120.074C484.193 118.786 484.6 117.299 484.619 115.614C484.6 113.947 484.203 112.489 483.426 111.239C482.65 109.97 481.57 108.994 480.188 108.312C478.805 107.612 477.214 107.261 475.415 107.261C473.578 107.261 471.958 107.612 470.557 108.312C469.174 108.994 468.095 109.97 467.318 111.239C466.561 112.489 466.191 113.947 466.21 115.614C466.191 117.299 466.57 118.786 467.347 120.074C468.142 121.343 469.231 122.347 470.614 123.085C472.015 123.805 473.616 124.165 475.415 124.165ZM533.433 142.091L533.32 133.795H534.683L553.774 114.364H562.07L541.729 134.932H541.161L533.433 142.091ZM527.183 158V99.8182H533.888V158H527.183ZM554.911 158L537.865 136.409L542.638 131.75L563.433 158H554.911ZM586.516 175.273C583.277 175.273 580.493 174.856 578.163 174.023C575.834 173.208 573.893 172.129 572.339 170.784C570.805 169.458 569.584 168.038 568.675 166.523L574.016 162.773C574.622 163.568 575.389 164.477 576.317 165.5C577.245 166.542 578.514 167.441 580.124 168.199C581.752 168.975 583.883 169.364 586.516 169.364C590.038 169.364 592.946 168.511 595.237 166.807C597.529 165.102 598.675 162.432 598.675 158.795V149.932H598.107C597.614 150.727 596.913 151.712 596.004 152.886C595.114 154.042 593.826 155.074 592.141 155.983C590.474 156.873 588.22 157.318 585.379 157.318C581.857 157.318 578.694 156.485 575.891 154.818C573.107 153.152 570.9 150.727 569.271 147.545C567.661 144.364 566.857 140.5 566.857 135.955C566.857 131.485 567.643 127.593 569.214 124.278C570.786 120.945 572.974 118.369 575.777 116.551C578.58 114.714 581.819 113.795 585.493 113.795C588.334 113.795 590.588 114.269 592.254 115.216C593.94 116.144 595.228 117.205 596.118 118.398C597.027 119.572 597.728 120.538 598.22 121.295H598.902V114.364H605.379V159.25C605.379 163 604.527 166.049 602.822 168.398C601.137 170.765 598.864 172.498 596.004 173.597C593.163 174.714 590 175.273 586.516 175.273ZM586.288 151.295C588.978 151.295 591.25 150.68 593.107 149.449C594.963 148.218 596.374 146.447 597.339 144.136C598.305 141.826 598.788 139.061 598.788 135.841C598.788 132.697 598.315 129.922 597.368 127.517C596.421 125.112 595.019 123.227 593.163 121.864C591.307 120.5 589.016 119.818 586.288 119.818C583.447 119.818 581.08 120.538 579.186 121.977C577.311 123.417 575.9 125.348 574.953 127.773C574.025 130.197 573.561 132.886 573.561 135.841C573.561 138.871 574.035 141.551 574.982 143.881C575.947 146.191 577.368 148.009 579.243 149.335C581.137 150.642 583.485 151.295 586.288 151.295Z" fill="black"/>
</svg>
