<svg width="966" height="256" viewBox="0 0 966 256" fill="none" xmlns="http://www.w3.org/2000/svg">
<path fill-rule="evenodd" clip-rule="evenodd" d="M173.437 159.816C156.212 171.817 127.274 167.166 114.663 150.521C102.052 133.875 95.4476 68.9216 95.4476 68.9216C95.4476 68.9216 160.929 87.5732 176.512 104.037C192.094 120.502 190.662 147.815 173.437 159.816Z" fill="#80D25B"/>
<path d="M109.175 84.3062C109.175 84.3062 149.057 108.01 163.56 151.667C167.291 162.9 172.906 170.915 179.188 176.623" stroke="#22BA8E" stroke-width="8" stroke-linecap="round"/>
<path d="M131.055 143.053L157.594 141.857L170.437 117.876" stroke="#22BA8E" stroke-width="8" stroke-linecap="round"/>
<path d="M122.303 117.876L142.174 114.506L148.558 101.091" stroke="#22BA8E" stroke-width="8" stroke-linecap="round"/>
<path d="M181.897 26.548C168.999 21.4301 154.856 18.6055 140.023 18.6055C112.938 18.6055 88.152 28.0246 69.047 43.6266C63.094 48.488 57.6927 53.9498 52.9452 59.9139M30.6284 123.286C30.6284 152.193 42.8729 178.363 62.6695 197.307C72.746 206.949 84.7792 214.719 98.1502 220.025M181.897 220.025C195.268 214.719 207.301 206.949 217.377 197.307C237.174 178.363 249.418 152.193 249.418 123.286C249.418 109.093 246.467 95.5597 241.118 83.2175" stroke="#5EA7FF" stroke-width="16" stroke-linecap="round"/>
<path fill-rule="evenodd" clip-rule="evenodd" d="M236.62 53.5155L168.149 51.8707L196.91 -9.18467e-05L236.62 53.5155Z" fill="#B4DFFB"/>
<path fill-rule="evenodd" clip-rule="evenodd" d="M141.069 227.627L192.315 184.05L208.171 240.795L141.069 227.627Z" fill="#B4DFFB"/>
<path fill-rule="evenodd" clip-rule="evenodd" d="M30.6306 77.353L61.2612 136.1H0L30.6306 77.353Z" fill="#B4DFFB"/>
<path d="M216 205L1035 203.875" stroke="#5EA7FF" stroke-width="15" stroke-linecap="round"/>
<path d="M321.835 89.8182V148H311.295V100.074H310.955L297.347 108.767V99.108L311.807 89.8182H321.835ZM357.915 148.795C355.131 148.777 352.413 148.294 349.761 147.347C347.11 146.381 344.723 144.818 342.602 142.659C340.481 140.481 338.795 137.593 337.545 133.994C336.295 130.377 335.68 125.898 335.699 120.557C335.699 115.576 336.229 111.134 337.29 107.233C338.35 103.331 339.875 100.036 341.864 97.3466C343.852 94.6383 346.248 92.5739 349.051 91.1534C351.873 89.733 355.027 89.0227 358.511 89.0227C362.167 89.0227 365.405 89.7424 368.227 91.1818C371.068 92.6212 373.36 94.5909 375.102 97.0909C376.845 99.572 377.924 102.375 378.341 105.5H367.972C367.441 103.265 366.352 101.485 364.705 100.159C363.076 98.8144 361.011 98.142 358.511 98.142C354.477 98.142 351.371 99.8939 349.193 103.398C347.034 106.902 345.945 111.712 345.926 117.83H346.324C347.252 116.163 348.455 114.733 349.932 113.54C351.409 112.347 353.076 111.428 354.932 110.784C356.807 110.121 358.786 109.79 360.869 109.79C364.278 109.79 367.337 110.604 370.045 112.233C372.773 113.862 374.932 116.106 376.523 118.966C378.114 121.807 378.9 125.064 378.881 128.739C378.9 132.564 378.028 136.002 376.267 139.051C374.506 142.081 372.053 144.468 368.909 146.21C365.765 147.953 362.1 148.814 357.915 148.795ZM357.858 140.273C359.922 140.273 361.769 139.771 363.398 138.767C365.027 137.763 366.314 136.409 367.261 134.705C368.208 133 368.672 131.087 368.653 128.966C368.672 126.883 368.218 124.998 367.29 123.312C366.381 121.627 365.121 120.292 363.511 119.307C361.902 118.322 360.064 117.83 358 117.83C356.466 117.83 355.036 118.123 353.71 118.71C352.384 119.297 351.229 120.112 350.244 121.153C349.259 122.176 348.483 123.369 347.915 124.733C347.366 126.078 347.081 127.517 347.062 129.051C347.081 131.078 347.555 132.943 348.483 134.648C349.411 136.352 350.689 137.716 352.318 138.739C353.947 139.761 355.794 140.273 357.858 140.273ZM412.148 89.8182V148H401.608V100.074H401.267L387.659 108.767V99.108L402.119 89.8182H412.148ZM447.602 148.795C443.379 148.795 439.629 148.085 436.352 146.665C433.095 145.244 430.538 143.303 428.682 140.841C426.845 138.36 425.936 135.547 425.955 132.403C425.936 129.96 426.466 127.716 427.545 125.67C428.625 123.625 430.083 121.92 431.92 120.557C433.777 119.174 435.841 118.294 438.114 117.915V117.517C435.121 116.854 432.697 115.33 430.841 112.943C429.004 110.538 428.095 107.763 428.114 104.619C428.095 101.627 428.928 98.9564 430.614 96.608C432.299 94.2595 434.61 92.4129 437.545 91.0682C440.481 89.7045 443.833 89.0227 447.602 89.0227C451.333 89.0227 454.657 89.7045 457.574 91.0682C460.509 92.4129 462.82 94.2595 464.506 96.608C466.21 98.9564 467.062 101.627 467.062 104.619C467.062 107.763 466.125 110.538 464.25 112.943C462.394 115.33 459.998 116.854 457.062 117.517V117.915C459.335 118.294 461.381 119.174 463.199 120.557C465.036 121.92 466.494 123.625 467.574 125.67C468.672 127.716 469.222 129.96 469.222 132.403C469.222 135.547 468.294 138.36 466.438 140.841C464.581 143.303 462.025 145.244 458.767 146.665C455.528 148.085 451.807 148.795 447.602 148.795ZM447.602 140.67C449.78 140.67 451.674 140.301 453.284 139.562C454.894 138.805 456.144 137.744 457.034 136.381C457.924 135.017 458.379 133.445 458.398 131.665C458.379 129.809 457.896 128.17 456.949 126.75C456.021 125.311 454.742 124.184 453.114 123.369C451.504 122.555 449.667 122.148 447.602 122.148C445.519 122.148 443.663 122.555 442.034 123.369C440.405 124.184 439.117 125.311 438.17 126.75C437.242 128.17 436.788 129.809 436.807 131.665C436.788 133.445 437.223 135.017 438.114 136.381C439.004 137.725 440.254 138.777 441.864 139.534C443.492 140.292 445.405 140.67 447.602 140.67ZM447.602 114.165C449.383 114.165 450.955 113.805 452.318 113.085C453.701 112.366 454.79 111.362 455.585 110.074C456.381 108.786 456.788 107.299 456.807 105.614C456.788 103.947 456.39 102.489 455.614 101.239C454.837 99.9697 453.758 98.9943 452.375 98.3125C450.992 97.6117 449.402 97.2614 447.602 97.2614C445.765 97.2614 444.146 97.6117 442.744 98.3125C441.362 98.9943 440.282 99.9697 439.506 101.239C438.748 102.489 438.379 103.947 438.398 105.614C438.379 107.299 438.758 108.786 439.534 110.074C440.33 111.343 441.419 112.347 442.801 113.085C444.203 113.805 445.803 114.165 447.602 114.165ZM504.274 89.6H550.834V94.96H504.274V89.6ZM497.234 138.16H562.594V143.68H497.234V138.16ZM547.314 89.6H553.794V96.8C553.794 106.08 553.794 116.4 551.074 132L544.434 131.36C547.314 116.56 547.314 105.76 547.314 96.8V89.6ZM578.588 84.8H628.348V103.68H585.468V116.16H578.748V98.56H621.708V90.16H578.588V84.8ZM578.748 112.88H630.028V118.32H578.748V112.88ZM570.748 125.76H636.348V131.28H570.748V125.76ZM600.108 127.84H606.668V154.32H600.108V127.84Z" fill="black"/>
</svg>
