<svg width="30" height="34" viewBox="0 0 27 34" fill="none" xmlns="http://www.w3.org/2000/svg">
<g clip-path="url(#clip0_50_50)">
<path d="M15.1664 33.15C18.7734 28.8867 27 18.5539 27 12.75C27 5.71094 20.9531 0 13.5 0C6.04688 0 0 5.71094 0 12.75C0 18.5539 8.22656 28.8867 11.8336 33.15C12.6984 34.166 14.3016 34.166 15.1664 33.15ZM13.5 8.5C14.6935 8.5 15.8381 8.94777 16.682 9.7448C17.5259 10.5418 18 11.6228 18 12.75C18 13.8772 17.5259 14.9582 16.682 15.7552C15.8381 16.5522 14.6935 17 13.5 17C12.3065 17 11.1619 16.5522 10.318 15.7552C9.47411 14.9582 9 13.8772 9 12.75C9 11.6228 9.47411 10.5418 10.318 9.7448C11.1619 8.94777 12.3065 8.5 13.5 8.5Z" fill="#F8B195"/>
</g>
<defs>
<clipPath id="clip0_50_50">
<rect width="27" height="34" fill="white"/>
</clipPath>
</defs>
</svg>
