<svg width="215" height="171" viewBox="0 0 215 171" fill="none" xmlns="http://www.w3.org/2000/svg">
<g clip-path="url(#clip0_59_39)">
<path d="M210.489 50.2982C216.488 46.1234 216.488 39.3435 210.489 35.1687L164.417 3.1062C158.419 -1.0686 148.676 -1.0686 142.677 3.1062C136.679 7.28101 136.679 14.0609 142.677 18.2357L162.546 32.0626H15.3571C6.86272 32.0626 0 36.8386 0 42.7501C0 48.6617 6.86272 53.4376 15.3571 53.4376H162.546L142.677 67.2646C136.679 71.4394 136.679 78.2193 142.677 82.3941C148.676 86.5689 158.419 86.5689 164.417 82.3941L210.489 50.3316V50.2982ZM50.5346 167.861C56.5335 172.036 66.2757 172.036 72.2746 167.861C78.2734 163.686 78.2734 156.906 72.2746 152.731L52.4542 138.938H199.643C208.137 138.938 215 134.162 215 128.25C215 122.339 208.137 117.563 199.643 117.563H52.4542L72.3225 103.736C78.3214 99.5609 78.3214 92.781 72.3225 88.6062C66.3237 84.4314 56.5815 84.4314 50.5826 88.6062L4.51116 120.669C-1.48772 124.844 -1.48772 131.623 4.51116 135.798L50.5826 167.861H50.5346Z" fill="#FFCAB5"/>
</g>
<defs>
<clipPath id="clip0_59_39">
<rect width="215" height="171" fill="white"/>
</clipPath>
</defs>
</svg>
